<?xml version="1.0"?>
<svg xmlns:rdf="http://www.w3.org/1999/02/22-rdf-syntax-ns#" xmlns="http://www.w3.org/2000/svg" xmlns:cc="http://web.resource.org/cc/" xmlns:xlink="http://www.w3.org/1999/xlink" xmlns:dc="http://purl.org/dc/elements/1.1/" xmlns:svg="http://www.w3.org/2000/svg" id="dove_with_love_letter_xA0_Image_1_" style="enable-background:new 0 0 345.099 214.873" xml:space="preserve" viewBox="0 0 345.099 214.873" version="1.1" y="0px" x="0px">
<g clip-rule="evenodd" fill-rule="evenodd">
	<path d="m24.443 1.206c0.086 10.837 0.283 20.591-1.76 32.326-2.675-0.845-4.866-3.272-6.646-5.26-1.797-2.007-3.544-4.303-5.151-6.362-3.383-4.338-6.892-8.42-10.676-12.359 0.522-3.906-1.353-7.932 1.565-9.28 7.814 0.06 15.783-0.036 22.668 0.935z"/>
	<path d="m56.565 70.99c-1.23-0.339-2.753 0.927-4.096 0.708-2.537-0.414-5.374-5.696-6.996-7.865-6.153-8.229-14.216-17.217-19.492-24.698 0.146-8.459 0.412-15.188 0.96-25.641 0.259-4.926-0.491-9.306 0.848-12.26 5.998-2.819 8.322 2.42 11.472 6.045 4.356 5.012 7.548 7.723 12.535 12.373 2.386 2.225 5.274 4.153 5.894 6.37 0.5 1.795-0.033 3.479-0.047 5.576-0.077 11.439 0.443 25.86-1.078 39.392z"/>
	<path d="m80.198 1.678c1.466 7.304 1.211 18.191 0.521 26.396-2.221 2.491-4.919 4.494-7.859 6.252-1.937-0.549-3.057-2.44-4.428-3.754-7.936-7.6-16.187-16.381-24.328-24.368-1.143-1.121-3.29-2.088-2.939-4.113 1.375-1.938 4.14-1.092 5.957-1.065 1.953 0.03 4.011 0.336 5.944 0.422 3.613 0.162 7.325-0.645 10.786-0.652 5.589-0.01 10.958 0.965 16.346 0.882z"/>
	<path d="m108.04 6.001c-5.378 5.321-11.44 9.511-17.223 14.724-1.719 1.55-3.501 4.062-6.354 4.036 0.337-8.119-1.014-17.352 0.195-23.046 9.084 0.224 20.572-3.2 23.382 4.286z"/>
	<path d="m130 2.842c-0.114 5.416 0.705 11.812 0.233 16.357-3.404-0.583-5.853-3.514-8.129-5.644-3.579-3.349-8.252-6.606-11.432-10.877 2.004-1.953 5.899-1.058 9.302-1.037 3.57 0.023 7.66-0.714 10.03 1.201z"/>
	<path d="m132.75 28.886c-1.362 7.221 2.551 22.346-3.203 27.108-4.785 3.451-9.785 7.558-14.969 11.77-0.948 0.77-5.418 4.809-6.732 4.775-1.623-0.043-2.737-2.164-4.426-4.127-4.035-4.692-8.734-9.089-12.527-13.116-5.789-6.145-11.189-12.48-15.833-17.977 5.3-4.845 11.332-8.999 16.842-13.611 1.435-1.201 2.682-2.587 4.12-3.682 2.873-2.187 5.585-4.377 8.605-6.618 1.919-1.423 3.868-2.142 5.239-4.045 2.311-0.291 4.461 2.564 6.653 4.517 5.47 4.869 11.37 10.3 16.23 15.006z"/>
	<path d="m25.554 45.823c-4.265 1.771-8.618 2.737-12.676 4.353-3.976 1.583-7.683 3.784-12.304 4.357-1.231-4.943 0.813-15.502-0.574-20.078 0.166-0.706 0.81-0.926 0.759-1.851 0.44-1.539-0.77-1.456-0.722-2.609 2.174-4.735-1.186-8.896 0.853-13.003 0.248 0.003 0.497 0.004 0.744 0.007 6.235 5.939 11.364 12.667 16.935 19.472 0.25 0.304 0.886 0.377 1.109 0.753 1.513 2.546 4.888 5.212 5.876 8.599z"/>
	<path d="m344.59 34.393c-0.453 3.511-0.354 6.249-0.454 9.662-0.113 3.769 0.997 8.041 0.646 11.529-0.099 0.987-0.838 1.635-1.138 2.591-0.896 2.88-0.534 7.126-3.051 9.268-2.527-1.324-3.283-4.39-5.524-5.995-1.358 2.037 0.782 5.504-0.061 7.062-2.987 0.572-4.955-2.634-8.528-2.675 0.763 2.449 5.252 4.418 7.004 7.123 2.574-1.672 7.152-4.314 10.802-2.511 0.159 3.279 1.803 8.042-0.086 10.037-2.734-0.157-5.108 0.052-7.437 0.309-7.653-9.34-15.756-19.266-30.673-21.448-0.767-0.112-1.426-0.589-2.223-0.762-1.643-0.358-4.351 0.35-5.191-1.531 0.706-1.223 2.548-1.142 3.729-1.455 2.724-0.724 5.449-0.916 8.561-1.415 3.029-0.485 8.144-1.052 13.389-0.63-0.381-5.385 0.862-9.12 3.44-11.495 2.931 1.542 5.668 3.276 7.011 6.379 0.365 1.121-0.834 0.651-1.494 0.73 0.913 0.971 1.918 0.672 3.337 1.143-2.116-6.823 2.548-12.778 5.716-16.678 1.16-0.169 1.43 0.541 2.21 0.762z"/>
	<path d="m61.729 31.631c0.216 0.15 0.94-0.178 1.115 0.009 2.282 2.437 5.843 6.211 9.578 10.489 3.208 3.676 8.147 8.176 8.826 11.226 0.837 3.759-0.664 8.325-0.847 12.26-0.081 1.719 0.685 3.063-0.041 4.833-4.025-0.589-7.836-1.388-11.504-2.329-2.059 0.906-4.744 1.175-7.815 1.049-0.579-11.914 0.998-26.532-0.063-36.429 0.135-0.486 0.659-0.578 0.751-1.108z"/>
	<path d="m228.59 36.386c0.496 0.004 0.992 0.008 1.488 0.013 0.364 1.122-0.834 0.651-1.495 0.73 0.01-0.247 0.01-0.495 0.01-0.743z"/>
	<path d="m40.645 63.421c-1.37 1.417-3.406 1.591-5.223 2.187-3.607 1.184-7.019 2.207-11.182 3.623-1.722 0.586-3.988 2.296-5.222 2.187-2.426-0.217-6.186-4.984-7.75-6.757-1.281-1.451-2.192-2.861-3.311-4.116-1.073-1.205-2.655-2.333-2.939-4.114 0.992-1.34 3.012-1.682 4.479-2.192 1.673-0.583 3.587-0.849 5.216-1.442 4.198-1.534 7.527-3.801 12.678-4.726 4.966 4.578 8.511 10.554 13.254 15.35z"/>
	<path d="m85.305 57.107c0.372 0.003 0.744 0.007 1.115 0.009 3.722 4.651 8.441 8.208 12.907 12.376 1.327 1.24 3.322 2.52 3.679 4.491-6.513-0.477-11.429-2.523-17.442-3.492-0.762-3.583-1.095-9.454-0.263-13.384z"/>
	<path d="m131.37 60.47c0.338 4.863-0.092 12.4-0.528 18.582-7.458 2.214-13.412-0.926-17.061-4.604-0.147-1.604 1.804-2.71 3.004-3.692 3.701-3.022 8.685-6.769 12.72-9.558 0.348-0.239 0.625-0.636 1.121-0.733 0.26 0.001 0.5 0.003 0.75 0.005z"/>
	<path d="m280 67.302c3.189-3.52 8.699-5.229 13.8-5.459 7.902-0.356 16.031 2.614 21.886 5.389 5.202 2.466 8.664 4.748 12.941 8.289 3.51 2.904 8.59 7.74 9.559 12.347 2.376 11.298-8.365 13.844-17.187 10.263-9-3.656-15.98-14.901-21.74-22.86-0.996-1.376-2.085-2.934-3.311-4.117-1.781-1.719-4.207-3.684-6.657-4.146-4.47-0.843-6.44 1.738-9.29 0.294z"/>
	<path d="m46.514 72.763c-0.724 2.06-2.917 1.439-4.476 1.821-5.346 1.308-11.437 3.119-17.502 3.569-1.033-1.564-3.343-1.873-3.682-4.12 1.235-1.232 3.13-1.256 4.848-1.817 4.635-1.515 11.313-3.491 16.031-5.44 0.316-0.066 0.35 0.147 0.369 0.375 2.427 0.93 3.257 3.43 4.412 5.612z"/>
	<path d="m298.11 80.465c-11.06-0.043-22.54-0.208-30.855 0.111 1.376-7.365 16.162-9.739 24.584-5.74 1.78 0.848 5.44 3.556 6.27 5.629z"/>
	<path d="m343.44 81.592c1.615 2.779 0.497 7.137 0.648 11.528 0.409 12.047 0.425 24.069-0.314 37.17-0.076 1.356 1.062 2.887-0.406 4.085-1.209 0.204-1.728-0.267-2.598-0.394-0.598-4.696-0.883-9.701-2.866-13.034-0.049-1.049 1.06-0.921 1.499-1.475-1.192-3.495-3.515-5.879-5.502-8.596-0.286-1.415 1.762-0.457 2.607-0.721-0.048-1-0.714-2.439-1.458-3.358-1.546-1.908-4.706-2.876-5.53-5.251 2.197-0.833 5.953-0.274 7.426 0.806 1.388-1.401 2.615-4.309 3.034-7.037 0.714-4.659-1.172-9.188-1.759-11.91 0.16-2.223 3.58-1.118 5.22-1.821z"/>
	<path d="m258.31 82.731c-1.177 2.55-4.116 3.312-5.622 5.528-0.129 1.618-0.998 2.485-1.151 4.079-3.188-0.53-5.666-2.389-8.145-3.786-2.488-1.402-4.823-3.105-7.396-4.523 2.367-2.789 8.771 0.147 11.141 1.209 3.26-0.938 7.98-3.938 11.17-2.507z"/>
	<path d="m312.47 96.199c-3.983-0.998-5.262-3.144-8.883-4.535-1.589-0.612-3.79-1.009-5.934-1.537-10.22-2.517-21.621-0.463-28.29 4.593-1.466 1.11-2.697 2.672-4.128 4.426-1.46 1.793-2.548 3.502-4.491 3.68-2.773 0.252-5.503-2.249-5.905-4.883-0.858-5.625 4.309-13.701 8.678-15.167 1.558-0.524 5.078-0.597 7.068-0.684 4.139-0.182 10.011-0.001 14.497 0.122 5.29 0.146 12.53 0.583 15.594 1.99 3.367 1.546 6.855 6.104 9.588 9.003 0.79 0.843 2.68 1.558 2.2 2.988z"/>
	<path d="m130.82 81.283c1.064 0.711 0.839 3.259 0.333 4.463-2.728-0.266-4.251-1.717-5.546-3.392 0.46-2.101 3.44 0.06 5.22-1.071z"/>
	<path d="m56.236 110.02c1.427 4.464-4.488 14.632-9.437 17.019-2.893 1.396-8.299 1.852-9.659-0.823 0.246-1.501 1.995-1.472 3.361-1.83 5.153-2.384 9.51-5.576 13.091-9.556-2.071-0.253-3.382 2.154-5.232 3.302-1.257 0.779-3.094 1.647-4.854 2.562-2.738 1.421-4.988 2.756-8.565 1.785 0.904-4.002 3.709-5.914 7.866-6.994 1.284-0.335 2.83-0.035 4.092-0.338 3.903-0.94 5.998-4.17 9.337-5.13z"/>
	<path d="m87.805 113.26c-0.81 2.527-2.768 4.567-4.146 6.657-1.379 2.095-2.404 4.933-4.882 5.906-0.802-2.283-0.107-6.039-0.296-8.922 3.234-0.93 6.387-3.64 9.324-3.65z"/>
	<path d="m58.434 113.76c0.996 0.739 1.764 1.705 2.205 2.991-0.981 0.376-2.284 0.425-3.72 0.341 0.106-1.52 0.98-2.26 1.515-3.33z"/>
	<path d="m30.163 116.12c1.172-0.168 1.449 0.542 2.225 0.764 0.329 2.646-0.979 4.245-0.798 6.311 0.363 4.126 5.135 7.054 2.878 11.548-2.16-0.313-1.467-2.864-1.825-4.103-3.338-2.79-3.895-9.98-2.48-14.52z"/>
	<path d="m76.613 118c-0.282 3.816-0.018 5.157-0.082 9.664-2.573-0.219-3.547-2.851-4.793-4.501-1.286-1.703-2.598-3.336-4.047-4.866 1.006-1.99 6.467-0.39 8.922-0.29z"/>
	<path d="m75.391 130.62c-8.359 3.134-20.903 3.965-32.363 2.699 0.633-4.724 5.192-5.847 10.835-6.6 4.887-0.649 8.912-0.711 13.747 0.86-1.985-4.377-8.137-3.768-14.096-3.464 1.239-4.479 5.899-6.628 10.452-5.117 3.498 1.162 6.348 6.092 8.107 8.247 0.99 1.24 3.267 1.21 3.318 3.37z"/>
	<path d="m139.05 119.27c0.372 0.003 0.744 0.007 1.115 0.01-0.003 0.37-0.006 0.742-0.009 1.114-0.8 0.06-1.17-0.31-1.1-1.12z"/>
	<path d="m17.866 119.73c2.151 0.788 4.327 0.096 6.691 0.056 0.126 2.378-1.231 3.247-2.269 4.441 0.157 1.073 1.592 0.893 1.843 1.875 0.386 1.393-0.932 1.05-0.762 2.223 0.393 2.195 3.117 2.095 4.807 3.015-1.027 2.939-2.929 3.365-6.716 2.916 0.422-6.44-1.753-10.32-3.594-14.53z"/>
	<path d="m19.233 133.87c-6.305 0.681-13.657-0.015-18.591 0.586 0.551-3.521-0.284-7.719 0.097-11.525 5.428 0.995 10.141-2.866 14.14-1.736 4.07 1.14 5.251 6.68 4.354 12.67z"/>
	<path d="m336.93 148.82c-5.228-0.597-9.546-4.667-15.937-5.712-2.853-0.467-6.695-0.637-10.035-0.085-6.223 1.031-10.229 5.815-18.994 4.301-5.907-2.11-11.669-8.747-7.664-16.794 1.773-3.564 7.424-6.8 11.213-7.338 8.731-1.24 14.205 2.303 20.028 5.374 5.275 2.78 10.127 5.227 14.795 8.674 4.38 3.24 7.23 6 6.59 11.59z"/>
	<path d="m34.901 127.31c0.248 0.001 0.496 0.005 0.744 0.007 1.689 0.182 1.359 2.349 2.577 2.995 1.514 0.039 1.771-1.198 3.724-0.713-0.475 2.767-2.333 4.127-5.611 4.042-0.818-1.79-1.248-3.94-1.434-6.34z"/>
	<path d="m343.74 135.5c1.166 8.688-0.334 22.012 0.084 33.827 0.124 3.422 0.899 6.589-0.081 9.663-2.734-0.134-4.29-1.433-5.925-2.65-0.488-6.499 0.98-15.166-2.432-20.094-1.207-1.743-3.472-2.122-3.683-4.12 0.679-1.685 3.79-0.893 5.956-1.066 1.567-5.965-0.718-11.332-3.221-14.522 2.05-1.28 6.16-2.05 9.29-1.04zm-5.97 2.17c-0.002 0.248-0.003 0.494-0.005 0.742 0.908 0.586 1.103-1.252 0.381-1.112-0.02 0.23-0.06 0.45-0.37 0.37z"/>
	<path d="m51.518 140.46c4.409-2.512 16.61-6.909 22.315-1.299-1.058 1.698-3.229 2.146-4.857 2.932-1.645 0.796-3.23 1.653-4.854 2.563-3.258 1.821-6.762 3.306-10.08 5.117-6.433 3.518-12.558 8.121-19.79 10.613-1.057-3.725 0.444-7.15 0.093-11.148-0.492-5.616-2.468-10.405-7.33-12.331 0.726-1.804 3.941-1.266 5.957-1.064 3.332 0.333 6.568 1.694 8.524 3.046 1.752-0.594 1.681-3.038 3.008-4.063 3.182-0.181 4.673 1.304 6.297 2.653 0.5 0.74 0.335 2.13 0.717 2.98zm9.289 0.45c0.037 0.946 0.529 1.445 1.475 1.5 0.653-0.334 1.296-0.681 1.13-1.85-0.731-1-1.895-0.55-2.605 0.35zm-15.626 1.73c0.867 0.008 1.733 0.016 2.601 0.022 0.271-0.925 0.379-1.524-0.352-2.234-0.487 1-1.914 1.05-2.249 2.21zm-7.445 1.05c0.337-0.782 1.142-1.089 1.134-2.221-0.435-0.432-1.31-0.432-2.227-0.392-0.649 1.23-0.131 2.27 1.093 2.61zm18.211 0.52c0.738 0.011 0.464 1.019 1.481 0.756 0.121-0.502 0.534-0.705 0.384-1.482-0.922-0.07-1.804-0.09-1.865 0.72z"/>
	<path d="m12.889 136.79c-0.797 2.669-2.952 4.648-4.517 6.651-1.562 2.004-2.989 4.195-4.883 5.908-0.552 1.062-0.659 2.579-1.883 2.959-2.895 0.013-0.729-2.771-0.712-3.725 0.027-1.529 0.126-3.569 0.041-4.831-0.153-2.252-1.092-4.472 0.06-7.062 4.265 0.55 8.33-0.98 11.894 0.1z"/>
	<path d="m68.962 143.58c8.264 2.481 13.585 17.821 5.359 25.693 2.202 1.769 4.853 3.093 6.271 5.628-0.612 2.753-3.097 3.601-4.509 5.539 1.921 2.311 5.35 5.738 3.265 9.692-2.224-0.677-4.05-2.174-5.918-3.396-2.024-1.323-3.374-2.146-5.923-3.022-4.389-1.512-9.253-2.27-13.343-4.576 3.939-6.351 12.25-11.955 14.299-20.694 1.08-4.598 0.879-8.614-0.257-13.385-0.262-1.02 0.746-0.74 0.756-1.48zm3.176 20.1c3.034 0.323 4.229-5.682 1.544-6.678-1.376 1.44-2.391 4.09-1.544 6.68zm-0.113 13.38c1.921 0.176 3.068-2.783 1.153-4.45-4.232-0.43-3.562 4.23-1.153 4.45z"/>
	<path d="m336.4 167.4c-3.114-0.257-4.278-2.43-5.913-4.14-3.005-0.836-4.822-3.345-7.778-3.411-4.444-0.101-5.398 3.626-9.695 3.635-7.424 0.018-11.653-10.248-5.081-14.541 2.693-1.758 6.927-2.144 10.051-1.771 9.02 1.08 18.33 10.04 18.41 20.23z"/>
	<path d="m31.762 146.98c-3.928 0.941-7.323 1.711-10.067 3.635-1.598 1.117-2.411 3.007-4.489 3.307-0.912-3.774-2.919-6.468-7.752-6.385 1.763-2.848 7.158-0.703 9.289 0.448 1.797-0.558 4.831-2.34 7.828-2.535 1.651-0.12 4.584-0.63 5.191 1.52z"/>
	<path d="m120.21 149.96c-5.56 9.841-12.093 18.69-17.343 28.847-2.124 0.065-1.165-2.417-1.452-4.1-0.917-5.341-1.961-17.303 1.299-21.922 1.502-2.127 6.214-4.71 8.562-1.415 2.29-2.09 5.74-4.05 8.93-1.42z"/>
	<path d="m31 149.21c1.262 4.78 1.031 11.026 2.47 15.634 4.203-1.62 8.537-2.793 12.675-4.355 4.059-1.532 8.196-4.065 13.038-3.235-0.969 3.023-1.427 7.879-2.699 11.501-0.548 1.561-1.758 2.688-2.265 4.071-0.177 0.481-2.003 6.221-1.915 6.674 0.878 4.498 13.065 4.227 15.173 7.934-2.168 2.734-5.172 5.106-8.246 8.108-0.403 0.395-2.625 2.647-2.625 2.581-0.008 0.576 4.137 3.972 4.795 4.5 2.098 1.689 4.022 2.231 5.168 4.134-0.461 1.713-2.322 1.993-3.742 2.942-2.322 1.55-4.65 4.402-7.468 4.024 0.522-3.842 5.455-3.199 7.113-5.886-4.961-0.671-11.872-0.08-17.102 0.227-0.297 1.024 0.283 4.306-0.791 5.568-3.313-0.245-8.201 0.051-11.895-0.101-1.316-2.46-0.386-5.324-0.677-7.812-0.505-4.312-2.935-7.465-4.373-10.443-1.342-0.287-1.128-1.743-1.837-2.618-5.354-6.609-13.551-10.84-25.177-11.736-0.426-2.059 1.341-1.886 2.989-1.834 0.112-3.509 1.831-5.386 2.671-8.154-1.557-1.119-3.32 0.217-4.835 0.33-0.949-3.298-2.243-8.791-0.634-13.014 0.604-1.589 2.781-2.994 4.125-4.426 1.554-1.656 2.554-3.47 4.124-4.056 3.332 1.761 3.704 6.433 6.619 8.606 5.367-2.77 9.123-7.2 15.321-9.14zm-22.848 20.25c1.188 0.433 2.459 0.776 4.083 0.778-0.688-3.477 2.29-6.927 1.943-10.021-0.237-2.122-4.398-6.617-5.138-7.848-0.802 5.18-0.258 11.73-0.888 17.09zm13.353 3.46c1.263 0.726 2.215 1.755 4.073 1.895 1.05-3.046 5.591-5.715 6.022-8.87 0.206-1.496-1.154-4.957-1.417-8.19-0.175-2.154 0.378-4.527-0.7-5.209-2.679 6.76-5.23 13.66-7.978 20.37zm12.932 9.4c1.886 1.709 3.059 4.118 5.156 5.62 2.012-1.454 4.09-2.839 5.617-4.784 2.265-0.196 3.265-1.679 5.223-2.188 0.502-7.862 4.187-12.486 5.739-19.281 0.571-0.085 0.059-0.611-0.365-0.747-6.845 7.41-14.482 14.02-21.37 21.38zm-20.734-9.84c-0.313 3.012-1.542 7.669 0.666 9.299 2.344-1.99 3.81-4.873 5.27-7.763-2.188-0.31-3.421-1.55-5.936-1.54zm11.403 14.22c2.877-0.697 4.452-2.72 7.094-3.656-1.477-2.356-3.881-3.802-5.9-5.628-1.034 2.43-2.671 6.6-1.194 9.29zm6.978 10.1c2.855-0.469 5.948-0.699 8.931-1.04-0.567-2.638-1.67-4.747-3.293-6.348-1.611 2.52-5.171 4.94-5.638 7.39zm11.167-1.77c-0.147 1.989 0.634 3.064 1.077 4.471 3.641-0.047 6.557-0.828 10.045-1.029 1.246-2.519 4.643-4.667 6.375-6.639 0.341-0.387 2.362-1.889 0.762-2.223-5.864 2.04-12.661 3.12-18.259 5.42zm-9.387 11.08c2.703 1.028 6.458 1.021 9.276 1.938 0.018-2.106 0.036-4.214 0.054-6.319-3.751 0.8-7.273 1.84-9.33 4.38z"/>
	<path d="m169.94 159.68c2.026-0.94 0.384-5.608 2.656-6.297 1.757 0.123 1.393 2.399 1.828 3.731 0.471 1.44 1.008 2.896 1.452 4.102 3.077-2.386 6.022-6.844 11.567-5.479-0.94 3.792-4.136 5.289-5.277 8.878 1.224 0.646 3.059-3.012 5.215-1.442 0.306 1.854-2.043 2.999-3.014 4.806-1.92 3.581-3.627 9.805-0.471 11.893 5.091-2.321 10.079-6.745 18.253-4.68 0.405 2.412-2.048 1.917-3.367 2.574-1.909 0.683-2.839 2.36-4.857 2.933-5.166 5.936-9.418 14.969-10.248 25.19-0.217 2.68 0.654 6.296-1.556 8.165-2.525-1.9-1.492-6.098-1.781-9.309-1.351-14.965-4.81-27.302-11.209-37.266-4.663-7.265-11.77-10.879-19.574-15.035-0.057-0.432 0.087-0.661 0.377-0.739 0.302-0.069 0.374-0.371 0.747-0.366 6.37 2.85 13.98 4.46 19.26 8.37z"/>
	<path d="m92.274 200.28c2.628-12.272 1.645-29.206-8.641-33.156-1.205 0.345 0.21 2.209-1.509 2.59-3.351 0.417-4.633-1.484-4.055-4.126 0.467-2.127 4.189-3.079 6.712-2.543 5.63 1.196 10.858 11.726 12.1 19.803 0.963 6.265 0.125 11.273-1.254 16.346-1.362 0.12-1.512 1.47-3.353 1.09z"/>
	<path d="m151.9 182.57c2.458-6.625 6.152-11.99 9.444-17.766 0.248 0.003 0.496 0.005 0.744 0.006 3.047 2.74 5.313 6.229 7.72 10.104 0.783 1.258 1.968 2.212 2.574 3.366 1.186 2.257 1.948 5.715 2.901 8.573 1.896 5.682 3.09 9.452 3.569 17.502 0.266 4.44 0.405 9.236-1.94 9.647-3.37 0.593-4.844-8.833-6.221-11.576-0.929-1.851-2.137-3.958-3.298-5.603-1.279-1.813-2.502-3.74-3.673-5.235-3.13-3.99-7.86-5.77-11.81-9.01z"/>
	<path d="m80.622 171.56c0.247 0.002 0.495 0.003 0.744 0.005 5.523 1.633 8.874 8.184 9.913 14.581 0.796 4.901 0.717 11.792-1.25 15.975-0.221 0.47-1.017 0.754-1.499 1.473-2.145 3.2-3.007 4.199-7.487 6.257-2.457 1.127-6.685 0.72-8.912-1.19 1.443-1.78 3.689-2.747 5.241-4.417 1.457-0.203 2.156 0.338 2.968 0.77 2.795-1.864-0.73-5.172-1.802-6.708-0.246-1.624 1.086-1.642 1.14-2.965 0.991 0.009 1.982 0.018 2.974 0.026-0.071-1.896-1.017-2.933-1.824-4.104-0.021-1.271 2.264-0.197 2.242-1.468-0.145-3.67-3.465-6.174-3.645-8.582 0.065-1.571 2.979-0.465 3.72-0.339-0.503-3.45-1.116-6.77-2.523-9.32z"/>
	<path d="m204.63 188.96c1.341-0.119 1.798-0.554 2.974 0.024 1.1 1.148 0.803 3.326-0.406 4.086 2.48 0.188 3.394-1.817 3.373-3.317-0.059-4.94-6.852-4.146-9.643-2.312-6.718 4.411-8.901 17.622-9.139 25.571-1.939 0.277-3.252 1.191-5.584 1.068-0.772-3.949-0.255-9.727 0.116-13.752 1.449-0.075 0.408 2.3 1.464 2.614 1.53-5.613 1.976-10.668 5.706-15.565 3.378-4.43 10.368-8.811 16.4-5.065 1.101 0.686 3.397 3.075 3.67 5.607 0.589 5.473-4.507 10.062-9.351 6.612-0.79-2.01-0.79-3.99 0.42-5.58z"/>
	<path d="m240 182.57c0.385 1.393-0.934 1.053-0.765 2.224 1.905 2.062 5.484 2.474 7.772 4.154 0.083 1.335-1.127 1.354-1.138 2.594 1.802 1.545 4.094 2.608 5.914 4.139 0.266 1.146-1.027 0.705-0.76 1.854 1.894 2.438 5.352 3.337 8.137 4.9 0.15 0.776-0.265 0.981-0.384 1.484 0.627 0.731 2.605 0.139 2.963 1.139-0.411 2.419-4.133 2.077-5.962 1.81-9.133-1.342-13.577-14.461-19.162-19.864-1.527-1.202-3.94-1.531-4.804-3.387 3.47 0.44 5.16-0.98 8.18-1.03z"/>
	<path d="m249.47 205.7c-9.798-0.249-13.388-13.138-25.563-9.881-2.15-1.295-1.229-6.745 0.071-8.549 2.888-4.009 9.697-1.561 12.256 1.218 0.676 0.734 1.102 2.249 1.831 3.361 0.644 0.985 1.656 1.74 2.207 2.623 1.292 2.063 1.972 4.661 3.292 6.345 2.19 2.8 4.77 2.81 5.9 4.88z"/>
	<path d="m171.34 213.21c-4.872 1.729-11.914 0.765-17.473 0.225-0.871-5.604-0.239-11.614-2.464-16.379-1.259-2.694-3.691-3.896-4.778-6.356 0.58-2.287 1.508-4.216 2.652-5.928 0.371 0.003 0.743 0.007 1.114 0.011 7.806 3.407 13.357 8.819 17.333 16.502 1.77 3.42 3.8 7.42 3.62 11.93zm-20.26-21.35c0.702 0.048 0.248 1.231 1.106 1.124 0.423-0.443 1.067-0.664 0.759-1.853-0.93-0.07-1.81-0.09-1.87 0.73z"/>
	<path d="m223.24 186.15c0.231 1.997-2.484 4.101-2.287 7.043 0.095 1.449 1.312 2.189 1.454 3.729-1.885 2.909-4.691 6.151-4.182 10.745 0.19 1.695 1.745 2.369 1.082 4.097-3.904 0.425-4.801-5.037-6.625-7.862-0.05-9.55 3.44-15.5 10.56-17.75z"/>
	<path d="m15.068 186.99c-2.562 5.143-8.295 7.061-11.989 11.052 2.105 0.799 6.459-0.768 8.918 0.447-0.562 3.348-6.585 4.973-8.619 8.104 1.363 0.012 2.726 0.023 4.09 0.034 0.039 2.917-2.83 2.874-3.389 5.177 4.122 0.906 5.7-3.921 8.964-5.13 1.61-0.229 0.099 2.605 1.09 2.985 2.769-1.809 3.096-6.1 6.382-7.381 1.361 1.652 0.544 6.634 0.305 7.809 1.769-0.036 2.632-2.661 3.755-4.431 1.156-1.819 1.937-4.459 4.128-4.798 0.499 4.01 1.15 9.582 1.006 13.021-10.081 0.378-18.051 1.703-28.255 0.503-2.087-9.084-0.931-19.804-0.88-27.887 4.355-0.32 10.979-0.17 14.494 0.5z"/>
	<path d="m203.52 187.84c0.518 1.917-1.317 2.185-1.521 4.075-0.332 3.067 1.95 7.781 3.624 10.811 1.814 3.281 4.14 6.273 3.631 10.439-1.851 0.176-4.135 0.854-5.578 0.324 0.133-8.211-6.336-17-1.648-24.92 0.7-0.05 1.26-0.24 1.5-0.73z"/>
	<path d="m344.4 189.4c-0.362 7.517 1.023 16.625-0.202 23.79-11.181 1.054-22.418-0.38-32.71-0.276 1.385-3.127 5.16-4.002 7.855-5.881 1.475-1.027 2.512-2.488 4.117-3.312 0.308-1.687 1.397-2.577 1.524-4.446 8.824-0.773 12.759-6.519 18.673-10.25 0.3 0.07 0.37 0.38 0.75 0.38z"/>
	<path d="m69.688 189.68c2.439 1.302 1.312 6.197-0.066 7.808 1.577 2.241 5.051 4.481 2.906 8.2-2.215-0.279-3.356-1.615-4.436-3.011-2.781-1.443-6.275-2.184-8.515-4.161-0.116-1.369 1.364-1.111 2.244-1.467 3.128-1.817 5.762-4.138 7.128-7.746 0.431-0.05 0.659 0.09 0.739 0.38zm-1.206 10.77c0.271-1.374-0.574-1.647-1.846-1.504-0.271 1.37 0.574 1.64 1.846 1.5z"/>
	<path d="m151.26 213.79c-1.115-0.948-2.218 0.385-3.343-0.399-1.585-4.584-3.957-8.395-8.088-10.476 1.808-3.284 2.827-7.372 5.657-9.617 5.32 3.24 8.05 13.28 5.77 20.5z"/>
	<path d="m264.69 207.31c-0.887 1.582-3.106 2.719-5.233 3.674-1.721 0.771-4.317 1.98-6.338 2.178-1.486 0.143-3.387-0.428-5.201-0.417-8.506 0.044-18.463 1.54-25.647-0.217-0.364-1.212-2.104-1.966-2.573-3.366-2.152-6.438 2.964-12.131 9.02-11.448 8.251 0.93 13.708 10.093 24.067 10.982 5.57 0.5 7.43-1.64 11.9-1.37z"/>
	<path d="m201.08 212.72c-1.812 0.993-6.106 1.665-7.434-0.062 0.374-1.763 0.977-1.81 0.029-3.346 2.166-2.004 0.71-5.449 3.401-6.663-0.208-0.778-0.911-1.067-0.725-2.236 2.308-6.084 5.987 2.657 3.294 5.976 1.19 2.17 0.62 3.79 1.43 6.33z"/>
	<path d="m108.99 201.91c2.004 0.485 3.569 1.404 4.809 2.642-0.31 6.12-9.45 1.09-4.81-2.64z"/>
	<path d="m282.91 207.47c-0.003 0.372-0.007 0.744-0.01 1.116-3.537-0.221-6.704 1.941-10.423 1.77 0.216 1.261 2.372 0.616 2.213 2.248-0.479 0.515-1.823 0.147-1.869 1.099-3.939-2.279-10.676 1.05-12.997-1.596 0.966-1.106 2.948-1.403 4.476-1.82 1.604-0.437 3.221-0.838 4.842-1.074-0.861-2.471-5.588-1.141-5.162-4.877 2.451 0.663 4.85 0.243 7.434 0.063 1.193-0.069 0.893 1.333 1.472 1.872 3.02 0.44 7.43-0.46 10.03 1.2z"/>
	<path d="m144.57 213.73c-2.939-1.773-6.88 1.216-9.658-0.826-0.646-2.844 2.286-5.126 3.039-7.781 4.018 0.596 5.476 3.709 7.381 6.383-0.21 0.78-0.93 1.06-0.76 2.23z"/>
	<path d="m92.589 206.97c-2.705 6.545-14.228 7.369-20.872 6.514-1.448-0.796-2.414-3.166-1.818-4.847 2.199-0.32 2.203 1.519 3.327 2.259 7.565 1.8 12.797-1.624 16.399-5.067 1.473-0.08 2.268 0.49 2.964 1.15z"/>
	<path d="m303.68 212.47c-2.692 1.582-6.046 0.259-9.297 0.292-3.249 0.035-7.104 0.998-10.412 0.657-1.365-0.142-5.058-1.156-4.81-2.644 1.119-1.685 2.368 0.255 4.084 0.406 7.5 0.66 18.66-8.34 20.44 1.28z"/>
	<path d="m68.403 209.74c0.739 0.884 0.959 2.497 0.342 3.719-3.096-0.739-5.935 1.385-7.435-0.062 0.782-2.83 4.454-2.72 7.093-3.66z"/>
	<path d="m278.13 200.74c-3.842 0.29-7.291 2.603-10.8 2.51-1.661-0.044-4.179-1.099-6.304-1.911-4.556-1.743-5.62-2.422-8.5-6.021-0.94-1.175-1.731-2.616-2.569-3.738-3.165-4.227-5.401-7.011-7.708-11.589-3.467 1.079-6.553 1.214-10.802 2.51-2.027 0.621-3.842 1.997-5.219 1.815-2.597-0.339-9.965-8.496-11.053-11.988-0.49-1.583-0.708-4.422-1.057-6.699-0.941-6.124-1.783-12.584-2.437-19.722-0.608-1.366-3.089-0.896-3.697-2.263-2.208 1.38-4.381 2.793-6.357 4.407 0.598 6.38 0.576 11.273 2.471 15.634 1.718 3.955 6.349 6.071 6.6 10.835-4.448-0.45-6.962-3.691-11.495-3.442-4.759 0.261-8.394 3.661-12.678 4.724-1.167-1.855 1.271-2.829 1.892-4.072-0.445-0.662-3.251 0.721-4.085-0.404 0.743-2.367 5.833-4.677 8.965-5.129 2.409-0.348 4.303 0.18 5.588-1.439-0.642-7.848-5.018-12.023-8.029-17.539-5.413 0.116-11.979-0.937-14.884 1.733-2.054 0.27-3.908-0.313-5.944-0.424-5.921-0.32-12.297 0.658-17.466-0.519-3.229-0.733-6.489-2.889-9.63-4.171-3.488-1.421-6.71-3.129-10.379-3.433-0.969 1.703-0.07 4.729 0.318 6.323 9.679 4.612 19.392 9.193 28.501 14.366-2.457 6.396-6.581 11.66-9.815 17.759-3.889 7.333-8.96 15.288-13.203 22.936-1.077 1.94-2.29 3.667-3.393 5.549-0.769 1.309-1.029 3.947-1.909 5.93-2.695-0.407-5.791-2.542-8.886-4.164-2.316-1.215-4.415-2.698-6.659-3.774-0.497 0.634 0.296 3.132-0.041 4.833-1.36 4.068-7.482 3.178-14.149 2.854-6.136-0.298-10.493 0.115-9.615-6.029-0.483-1.244-2.163-1.312-2.58-2.624 2.066-3.641 5.311-6.021 8.967-5.501 6.429 0.917 6.47 11.043 12.554 10.146 1.729-0.257 2.006-0.983 2.63-3.325 0.042-0.157 0.668-1.16 0.749-0.737-0.271-1.419-3.247-2.249-4.435-3.012-3.891-2.496-10.026-5.96-13.686-7.92 7.041-11.885 15.754-26.244 23.38-39.577 1.196-2.092 2.894-4.657 3.024-5.922 0.25-2.426-1.794-4.846-1.428-7.075-5.269-0.369-9.504 1.687-13.786 3.974-1.88 1.003-4.42 2.002-5.601 2.925-4.879 3.811-6.421 12.996-6.876 21.873-7.446-3.734-7.948-14.301-14.711-18.711-0.316-3.814-2.258-7.269-2.508-11.172-0.123-1.932 0.492-3.716 0.419-5.572-0.075-1.912-1.398-4.003-1.064-5.957 0.401-2.35 4.393-5.6 6.01-7.384 2.354-2.599 4.583-4.466 6.375-6.639-0.502-2.086-1.825-3.366-2.933-4.855-2.84 0.368-6.059 5.15-9.339 5.497-1.222 0.129-2.792-0.145-4.46-0.037-5.33 0.342-10.286 1.89-13.385 0.259-1.615-2.466-2.759-5.397-4.019-8.212-1.676 1.007-3.903 2.005-6.347 3.292-3.139 1.653-4.542 2.845-9.321 3.265-5.218 0.462-10.784 3.029-14.497-0.122-1.466 0.573-3.382 0.745-4.844 1.448-2.011 0.964-3.644 2.852-6.351 3.662-2.308 0.692-5.245 0.857-7.818 1.421-2.479 0.542-4.993 1.708-7.443 1.051 2.729-3.563 8.02-2.5 12.298-3.611 4.326-1.124 7.671-4.402 11.566-5.106-0.099-2.133-2.524-2.654-4.058-3.751-1.18-0.846-2.854-3.138-4.431-3.383-2.179-0.34-5.293 1.637-7.828 2.535-2.378 0.842-5.377 2.924-7.439 0.681 0.893-1.766 3.192-2.068 4.854-2.561 12.269-3.648 25.448-8.668 38.392-12.314-0.439-1.781-3.568-0.916-4.441-2.268-2.675-2.285-5.208-4.71-6.997-7.866-8.662 1.051-19.254 1.054-26.381 3.478-1.741 0.592-3.679 2.026-5.212 1.071-0.031-3.287 4.375-2.76 6.347-3.292 7.953-2.148 15.893-4.334 24.589-6.483 8.069-1.994 16.356-3.818 24.957-6.108 4.061-1.082 8.103-2.723 13.403-2.489 3.37 0.149 7.34 0.957 11.138 1.581 5.785 0.951 11.667 2.495 17.44 3.493 2.895 0.5 5.907 0.418 8.544 0.816 4.569 0.688 8.96 1.725 11.862 3.817 5.456 3.934 12.005 8.843 17.361 13.157 3.76-2.923 7.748-5.615 10.489-9.577-1.777 0.921-2.998 2.033-4.864 3.677-1.411 1.245-2.997 3.742-5.231 3.302-4.11-0.812-1.99-10.838-2.095-16.002-0.073-3.608-1.018-8.437 0.463-10.776 2.625 0.242 3.925 3.475 6.268 6.001 1.155 1.244 2.867 2.678 4.055 4.123 1.041 1.266 3.193 3.525 3.308 4.489 0.191 1.598-1.465 2.996-1.896 4.445 1.326 0.088 2.425-3.276 3.387-4.805-0.655-1.986-2.224-3.958-3.67-5.606-2.681-3.055-5.482-6.352-8.467-9.736-1.577-1.787-3.619-3.048-4.048-4.867-0.288-1.223 0.615-4.102 0.8-6.684 0.259-3.605 0.171-6.879 0.457-10.034 0.291-3.221-0.729-8.344-0.288-10.038 0.533-2.041 5.594-4.99 7.863-6.625 6.98-5.028 20.535-7.617 30.195-10.152 4.695-1.234 9.209-3.143 13.791-4.345 2.532-0.665 4.988-1.144 7.448-1.795 4.413-1.167 9.048-2.421 14.157-3.598-2.443-0.853-6.049 0.342-7.818 1.421-6.62 0.399-13.331 3.033-20.112 4.662-3.401 0.817-6.733 1.728-10.059 2.518-5.456 1.297-10.406 2.706-16.391 4.322-2.224 0.6-4.614 0.771-6.703 1.43-3.933 1.24-6.67 4.721-10.455 5.488-4.933-3.26-1.276-14.964-2.792-21.583 5.688-1.014 11.547-0.894 17.479-0.968 6.246-0.077 15.648 0.682 24.533 0.208 0.913-0.049 1.654-0.621 2.607-0.721 4.831-0.508 11.153 0.483 15.979 0.507 4.855 0.022 10.983 0.163 16.352 0.509 0.471 1.604-1.065 1.167-1.503 1.846 9.506-3.748 22.14-2.072 33.85-2.687 0.433-0.023 1.775 0.096 2.231 0.018 0.749-0.128 1.226-0.695 1.862-0.727 8.347-0.43 20.296 1.458 30.114-0.489 0.031 0.954 1.381 0.609 1.85 1.13 5.466-0.144 11-0.756 16.724 0.514 9.422-1.211 23.507 0.042 34.202-0.455 2.199-0.103 3.634-0.508 6.321-0.319 2.786 0.196 6.784-0.92 8.166 1.556-0.662 2.569-3.235 1.018-4.842 1.075-24.022 0.835-49.931-0.874-74.714-0.26-0.745 2.969-0.458 7.334-0.826 9.658-0.76 1.601-3.433 1.256-4.481 2.564 1.872 1.188 4.375 1.194 6.678 1.544 13.049 1.977 28.366 0.346 41.261-0.024 9.041-0.259 16.896 0.12 26.397-0.521 2.689-0.181 6.811-2.341 8.915 0.819-1.385 2.474-6.336 0.632-8.562 1.415 0.597 5.065 3.943 7.426 5.103 11.938-7.532 4.086-14.703 8.54-22.039 12.824-4.329-0.903-8.779-1.688-13.737-1.974-2.934 2.227-3.324 7.436-6.776 9.978-1.705 1.258-4.968 2.186-7.462 3.283-2.391 1.05-5.373 2.809-7.458 2.911-5.326 0.262-10.424-4.259-15.946-4.596-0.949 0.958 0.499 2.686-0.037 4.46-5.696 1.581-9.653 4.927-15.296 6.563 2.287 2.665 6.151 3.78 8.121 6.759-3.242 3.827-6.489 7.647-10.867 10.317-4.66-0.827-10.721-0.273-15.98-0.507 3.006 6.629 11.185 11.365 17.334 16.13 2.298 6.835 5.438 12.838 8.764 18.661 0.259 1.138-0.391 1.35-0.391 2.226 2.234 3.091 3.102 7.52 5.487 10.457 0.262 1.137-0.651 1.086-0.39 2.227 0.414 0.697 0.424 1.793 1.846 1.501-1.184 1.273 0.813 1.654 0.344 3.349 2.102 2.111 3.104 5.304 6.265 6.373-0.005 0.62-0.011 1.239-0.016 1.859 10.674 7.961 23.001 13.507 34.771 20.365 2.991 1.744 5.623 3.782 8.504 5.275 9.245 4.796 20.033 6.609 29.264 12.145-1.756 3.338-4.165 6.01-5.289 9.99-3.771 1.788-7.396 3.726-11.196 5.481-2.31-0.434-3.161-2.3-5.179-3.017-1.097 2.63 0.12 5.051-0.433 7.059-0.375 1.362-1.643 2.011-3.002 3.321-2.853 2.747-6.592 5.542-10.103 7.72-1.688-0.06-2.033-1.439-2.953-2.256-2.838-0.772-4.545-2.657-7.031-3.775-2.547 0.532-4.552 1.619-6.345 2.92-2.488-0.635-4.657 0.235-7.805-0.065-3.02-1.81-3.93-5.71-6.59-7.88zm-148.83-27.66c1.557-5.997-1.001-13.219-0.571-20.449-1.141-0.846-1.584-2.374-2.949-3-7.616 14.624-15.924 28.542-24.518 42.171 3.468-0.972 5.765-3.136 9.327-4.012 0.915-0.484-0.397-1.387 0.384-1.484-0.07 0.808 1.318 0.181 1.856 0.39 1.769-1.406 4.314-2.113 6.718-3.29 2.076-1.016 4.602-3.692 6.71-2.173-1.05 2.064-3.601 2.757-5.608 3.669-2.147 0.976-4.18 2.271-6.347 3.292-4.384 2.064-9.662 2.962-13.062 6.21 10.787 4.629 19.557 11.241 30.347 15.867-0.261-10.458-1.778-20.256-0.876-28.257-4.59 1.25-9.37-9.11-1.41-8.94zm84.32-168.04c0.136 1.8-1.041 4.038-0.422 5.943 7.403 2.244 19.915 4.807 28.57 6.188 3.002 0.479 5.694 1.889 7.793 1.554 2.023-0.324 5.344-2.917 6.354-4.036 2.344 0.677 4.3-2.066 6.714-2.545 0.032-2.9 1.041-6.606 0.077-9.292-12.66 1.024-33.25-0.29-49.08 2.188zm-39.49 10.446c-13.543 3.417-27.269 6.5-36.556 14.932 0.298 8.72-1.081 17.541-1.335 26.009 1.791 4.426 6.138 7.47 9.566 11.604 0.432 0.521 0.616 1.635 1.097 2.24 0.663 0.833 1.927 1.844 2.948 2.999 1.02 1.153 2.089 3.045 2.574 3.367 2.501 1.664 6.066 0.745 8.901 2.306 1.594 3.371 6.424 5.447 5.866 9.714-4.623-1.154-4.578-8.044-8.842-9.367-2.28-0.708-3.9 0.728-6.687-0.428-0.6 2.263-2.114 3.598-2.652 5.924-1.836 1.135-2.855 2.944-4.499 4.423-1.509 1.357-3.646 2.284-5.235 3.672-4.527 3.956-7.563 10.065-14.225 11.776 0.936 1.736-0.851 2.51-1.149 4.078 2.355 0.266 2.004 3.191 3.682 4.122 0.471 0.643 2.223 0.027 2.221 1.134 0.505 1.469 0.371 3.566 1.823 4.104 0.806-0.93 0.761-2.724 2.625-2.579 2.381 2.819 4.021 6.366 6.614 8.976 11.646 1.553 23.755 3.604 36.011 5.51 1.308-2.059 1.841-5.207 4.137-5.542 2.055-0.298 2.894 1.874 5.185 2.275 0.288-1.476 1.721-3.115 0.405-4.086 1.19 0.336 0.779-0.958 1.497-1.103 0.88-4.729 2.649-8.549 4.196-12.604-1.233-0.753-1.906-2.061-2.95-2.998-0.697 2.325 2.853 3.426 1.079 4.471-1.522-1.086-2.751-2.456-4.433-3.384-1.938-4.36-2.076-10.49-4.712-14.166-0.945 3.384 2.273 7.503 1.771 10.423-1.97-1.258-0.851-5.554-3.292-6.347-0.071 3.134 3.012 6.709 1.785 8.565-1.274-1.082-1.169-3.521-2.189-4.851-1.741 1.788 0.69 4.325 0.686 6.696-0.974 0.426-1.588-1.16-1.489 0.359-0.153 1.518 1.31 3.359 0.335 4.464-2.132 0.768-1.708-3.9-2.181-5.967-0.229-1.002-1.425-1.055-1.466-2.243 0.005-0.743 0.012-1.486 0.02-2.23 3.468-3.594 3.918-10.258 6.441-14.814 0.809 0.802 1.402 1.817 1.086 3.726 1.722 4.082 2.614 8.978 3.975 13.416 3.225-0.746 0.613-6.149 3.399-6.29 0.962-0.05 1.33 2.577 2.199 3.736 0.899 1.203 2.242 1.242 2.206 2.621-1.621 0.364-1.703-0.783-2.591-1.137-0.273 0.925 1.624 1.541 0.352 2.233-1.454-0.289-0.979-2.477-2.955-2.255 0.746 2.093 2.04 3.647 3.302 5.231 2.522-0.184 5.884 0.487 7.808-0.305-0.824-3.365-3.233-5.175-4.391-8.215-0.921 0.046-1.805 0.054-1.853-0.759 0.727-4.747 4.101-8.628 5.687-12.962 0.808-2.205 0.076-5.714 3.03-6.666 1.308 1.17 0.89 4.43 0.682 7.067-0.222 2.88-0.147 6.143-1.173 7.053-0.956-0.043-0.519-1.455-1.475-1.5 0.151 2.149 1.62 3.929 2.553 5.97 0.855 1.875 2.345 4.706 1.438 5.587-2.203-0.289-1.211-3.722-3.31-4.117-0.112 1.303-1.377-0.944-1.491 0.359 0.406 0.969 2.036 2.646 1.086 3.726-1.449-0.418-1.066-2.639-2.203-3.364 0.542 3.029 1.624 5.529 2.907 7.832 3.733 0.089 8.641 0.08 10.782-0.282 0.752-3.814 2.764-8.145 3.82-12.234 0.532-2.047-0.312-5.844 2.656-6.297 2.399 2.309 2.574 6.807 4.754 9.333 2.689-4.513 6.423-7.962 9.026-12.562-1.237-2.825-3.376-4.895-5.146-6.734-0.591-0.611-0.956-1.476-1.471-1.872-4.424-3.388-11.097-4.489-13.671-9.78 1.824-0.925 3.417 0.968 4.815 1.898 1.518 1.011 3.191 2.021 4.807 3.016 3.364 2.072 7.633 5.843 11.47 6.416 4.203 0.629 9.55-0.622 14.122 0.491 0.082-0.289 0.314-0.429 0.745-0.365 1.339-1.264 2.443-2.761 3.752-4.057 1.259-1.248 3.184-2.158 3.75-4.058-2.857-1.788-5.406-5.36-8.491-6.762-1.514-0.687-3.374-0.598-5.195-1.159-2.647-0.817-5.356-2.318-7.779-3.04-2.78-0.827-5.705-0.894-8.159-2.299-1.671-0.958-3.308-2.673-4.801-3.758-5.415-3.934-9.703-7.581-15.146-11.28-2.287 5.398-11.172 3.274-16.746 2.088-1.311 2.416-1.515 5.955-4.147 7.028-4.663-1.97-10.825-3.012-16.694-3.858-3.296-0.475-7.298-0.718-9.267-3.052 0.346-0.898 1.501-0.972 2.61-1.094 0.059 0.558-0.143 1.371 0.359 1.49 0.05-0.949 1.251-0.727 2.237-0.725 7.167 1.309 14.478 2.475 20.777 4.636 1.521-3.326 2.801-6.898 4.545-9.998-1.975-3.586-4.094-7.031-6.23-10.461 2.107-1.819 3.097 1.521 4.812 2.271 5.44-0.215 8.496-2.856 8.989-8.103-2.013-0.961-6.515 2.125-8.548-0.073 1.931-2.75 6.148-1.419 10.426-2.142 4.148-3.154 7.074-7.551 11.243-10.686 0.013-1.485 0.761-2.224 0.775-3.71-12.8 0.541-25.28 6.23-37.65 9.354zm25.58 7.278c0.351 2.982-1.132 4.099-1.541 6.306 2.7 2.001 5.966 2.007 9.268 3.051 3.065 0.972 6.219 3.404 9.264 3.424 2.964 0.022 6.584-2.293 9.693-3.263 3.497-1.089 6.623-2.213 10.061-2.889 1.591-3.131 2.608-6.845 4.174-10.001-9.909-2.297-19.978-4.439-30.054-6.573-3.74 3.185-6.47 7.404-10.86 9.945zm85.15-2.255c-6.01 0.214-11.487 0.025-15.978-0.878-4.154-0.834-7.963-2.119-11.876-2.331-2.168-0.117-6.042 3.499-8.207 3.647-2.16 0.15-4.461-1.444-6.31-1.168-0.909 3.075-1.989 5.975-3.049 8.896 10.637 1.465 19.634 3.49 30.438 5.089 12.261 1.814 24.526 4.02 36.381 5.512 1.718 0.216 3.646 0.147 5.574 0.419 2.224 0.313 4.228 1.425 5.938 1.165 1.163-0.176 3.385-1.642 4.854-2.561 5.014-3.139 9.632-6.135 14.201-8.801-1.86-4.083-3.644-7.055-5.113-10.824-15.12 0.744-31.32 1.286-46.84 1.835zm-2.01 17.455c-3.772-0.548-7.699-0.962-11.509-1.584-4.961-0.811-9.901-2.449-14.473-3.096-1.354-0.192-2.637 0.138-4.087-0.035-5.598-0.667-12.152-3.262-15.597-1.991-1.761 0.649-4.775 0.407-5.966 2.18 3.264 2.712 8.014 5.072 12.946 7.544 4.406 2.209 8.689 5.566 13.321 7.175 1.874 0.652 4.175 0.922 6.308 1.54 2.129 0.619 4.145 1.237 6.302 1.913 4.015 1.257 9.142 3.747 12.61 3.452 5.028-0.429 8.751-4.954 13.803-5.832 1.438-2.784 3.26-5.181 4.53-8.139-5.32-1.88-11.48-2.152-18.18-3.127zm-86.55-7.422c-1.274 1.703-3.939 1.993-7.077 1.798-0.11 2.022 2.651 4.224 2.914 7.088-0.066 1.434-1.27 1.706-1.144 3.335 3.351 0.637 7.107 0.876 10.77 1.206 3.321-2.245 5.802-5.346 8.617-8.105-4.32-2.141-9.91-3.03-14.08-5.322zm58.58 19.08c-4.702-1.836-8.925-5.304-13.318-7.547-4.759-2.428-9.438-4.706-12.941-8.287-0.247-0.002-0.495-0.004-0.743-0.006-4.402 1.548-9.435 5.082-15.263 2.845-1.478 1.373-3.265 2.428-4.128 4.425 5.113 4.827 12.321 8.553 17.736 12.789 0.926 0.726 1.304 1.792 2.208 2.249 1.384 0.694 3.552 0.993 5.194 1.531 5.884 1.926 10.729 3.186 16.312 4.97 4.978-2.436 10.267-4.555 14.562-7.683-0.11-0.874-0.576-1.401-0.351-2.606-2.89-1.615-6.29-1.512-9.27-2.68zm-127.09 38.33c-3.633-2.745-8.68-4.059-11.457-7.902-12.36-2.274-25.362-4.638-37.858-7.011-3.09-0.587-6.555-1.55-9.279-1.566-6.012-0.034-11.169 3.542-17.13 3.573 1.257 2.95 5.65 5.697 9.236 6.77 2.578 0.771 4.172-0.323 6.694-0.316 1.708 9.519 19.192 13.484 27.077 6.92 2.276 1.967 4.741 3.664 8.53 2.303 0.855 1.001 1.481 2.229 1.826 3.733 3.88 3.681 8.723 6.413 16.301 6.457 1.627 0.404 1.232-1.248 2.612-1.093 0.895 0.472 0.835 1.882 2.214 1.877 2.965-2.358 5.843-4.805 8.244-7.736-3-1.127-4.43-4.069-7-6.006zm-90.625-8.572c-4.624 1.213-9.716 1.387-13.039 3.234 10.219-0.354 19.413-1.75 28.65-3.103-0.835-1.39-1.941-2.515-3.317-3.374-4.124 0.213-8.259 2.183-12.294 3.243zm17.083 2.002c-4.21-0.377-9.007 1.672-13.772 2.115-1.775 0.165-3.75-0.703-5.582 0.696 1.582 1.875 3.487 4.501 5.897 5.998 1.45 0.9 3.847 1.089 5.931 1.908 2.046 0.804 3.485 2.174 5.185 2.274 2.905 0.172 6.406-1.591 9.314-2.523 3.376-1.082 6.499-1.656 9.317-2.895-2.059-1.292-3.276-3.412-4.787-5.245-5.197 1.931-7.839-1.999-11.503-2.328zm179.49 5.978c-1.688 4.086-5.199 7.183-7.521 10.344-0.736 1.001-2.483 2.622-1.522 4.076 4.011-1.599 6.251-5.176 8.99-8.102 1.222-1.304 3.154-2.154 3.751-4.057-1.45-0.547-1.4-2.559-3.7-2.265zm-32.37 3.815c-0.224-1.131 0.502-3.198-0.341-3.72-0.24 0.992-1.86 3.589 0.34 3.72zm36.8-0.06c-1.991 2.346-4.16 5.232-6.381 7.38-2.006 1.94-5.613 2.881-6.001 6.269 1.591 0.666 3.401-0.985 4.478-1.82 4.107-3.193 7.936-6.78 11.606-9.939-1.3-0.582-1.84-1.89-3.71-1.89zm-166.53-0.664c-5.476 2.645-14.027 4.189-19.757 6.523-4.134-3.108-7.663-1.42-12.269 0.269-6.968 2.555-14.941 5.108-21.249 7.255 1.654 1.779 3.774 3.286 5.906 4.882 1.927 1.442 4.473 3.811 6.656 4.145 2.554 0.394 7.515-1.47 9.68-1.776 1.134-0.159 2.469 0.238 3.345 0.027 2.493-0.594 5.643-2.73 8.587-4.386 5.749-3.236 10.897-6.858 16.067-9.901 3.035-1.788 6.423-2.809 8.22-5.135-1.715-0.058-3.761-2.585-5.186-1.897zm30.088 2.856c-3.404 0.399-5.074-0.908-7.047-1.917-3.716 3.525-9.181 1.542-14.146 2.481-1.714 0.325-3.649 1.929-5.601 2.927-5.948 3.041-12.035 6.321-16.44 9.898 1.494 2.462 2.698 5.212 4.023 7.84 4.594 0.015 8.41-0.827 12.275-1.012 1.207-0.057 2.815 0.367 4.089 0.035 1.834-0.476 4.354-2.839 6.353-4.035 6.965-4.17 13.387-8.203 20.541-11.351-0.84-2.128-2.88-3.075-4.05-4.866zm115.56 5.066c2.045 1.184 3.691 2.76 5.916 3.767-1.47-3.224-2.177-7.197-4.38-9.701-0.49 1.994-1.08 3.897-1.54 5.93zm-16.7-2.744c0.02-1.249-0.495-1.971-1.094-2.611 0.41 0.815 0.05 2.405 1.09 2.611zm41.64-1.134c-3.221 3.972-8.349 6.786-12.351 9.932-1.167 0.918-3.743 2.229-2.268 4.441 6.771-3.361 13.422-6.843 19.421-10.987-1.63-1.1-2.18-3.253-4.8-3.382zm4.79 4.872c-3.964 3.25-9.758 6.229-14.197 8.43-1.558 0.773-4.042 0.908-4.485 2.937 3.672-0.162 7.604-1.58 11.177-2.88 3.673-1.335 7.117-3.048 10.445-4.373-0.697-1.402-0.627-3.561-2.195-4.107-0.24-0.005-0.49-0.008-0.74-0.01zm-139.4-0.062c-6.295 2.844-11.988 6.303-17.554 9.889 1.666 0.942 2.093 3.104 3.308 4.488 1.642 0.228 3.245 0.495 4.451 1.152 5.969-2.812 12.418-6.391 18.288-8.767 2.215-0.897 4.755-1.047 6.344-2.92-6.55 0.31-10.76-1.69-14.83-3.839zm108.51 4.639c3.698 1.525 6.292 4.135 9.99 5.66-0.771-5.509-5.113-7.505-9.586-9.373-0.11 1.25-0.61 2.12-0.4 3.71zm13.31 8.66c0.147 2.185 2.546 2.892 4.062 3.008 3.523 0.271 9.877-2.441 14.528-3.595 1.936-0.479 3.709-0.491 5.212-1.069-0.157-1.29-1.055-4.794-2.926-5.602-6.58 2.79-13.45 5.3-20.87 7.25zm-12.95-7.18c-0.372-0.002-0.744-0.006-1.115-0.01-0.43 0.812-0.974 1.511-0.77 2.967 4.326 1.768 8.693 3.496 13.341 4.947-2.17-4.26-8.36-4.56-11.46-7.91zm-94.8 0.69c-2.639 1.332-5.273 2.132-7.834 3.279-2.238 1.002-4.507 1.925-6.715 2.918-4.293 1.928-7.594 5.959-12.326 6.957-1.346-0.642-1.067-2.881-2.574-3.366-3.957 4.224-7.764 8.598-11.632 12.911 0.105 3.739 2.069 7.321 0.281 10.783 2.053 4.86 1.42 12.365 6.571 14.18 2.189-1.437 5.941 0.379 8.917 0.447 1.096-2.52 4.194-3.33 4.889-6.649 0.178-0.849-0.262-1.736-0.346-2.977-0.181-2.664 0.439-6.347 0.072-8.547-0.583-3.494-3.815-6.073-3.273-8.579 3.81 2.974 9.932 0.353 12.657-2.122-0.903-0.712-2.555-0.685-2.208-2.623 5.208 2.007 9.153 5.255 14.436 7.186 0.062-0.687 1.261-0.218 1.493-0.73-0.931-2.893-0.126-7.495-1.776-9.682 1.202-1.775 3.305-2.637 4.129-4.798-1.552-0.062-3.384 1.539-4.835 0.332-0.077-2.076 1.521-2.45 1.893-4.072-1.174 0.049-2.244-0.005-2.596-0.765 0.253-1.743 2.222-1.74 2.262-3.699-0.68 0.07-0.79-0.43-1.46-0.39zm101.04 8.66c1.839 0.518 3.979 1.802 5.569 0.79-0.421-1.475-2.523-1.497-3.701-1.891-7.456-2.485-14.57-5.406-24.13-3.921 7.65 1.82 15.15 3.02 22.26 5.02zm-28.96-4.7c-0.553 0.813-1.144 1.585-1.142 2.963 7.765 1.925 16.761 2.826 24.87 4.3 3.005 0.545 5.759 1.991 8.532 1.93-0.169-1.171 1.148-0.83 0.763-2.223-11.13-2.2-21.79-4.87-33.02-6.97zm59.83 1.99c-5.068 2.343-11.55 3.25-17.512 4.685 3.689 4.228 14.671 0.098 20.078-0.575-0.39-1.82-1-3.43-2.57-4.1zm-34.63 7.14c-5.159-0.955-10.681-1.212-15.224-1.987-4.441-0.758-9.698-3.583-12.254-1.592 0.374 0.005 0.439 0.305 0.74 0.379 6.928 2.98 14.852 6.43 21.851 9.478 1.814 0.79 5.286 4.082 6.68 1.544-0.796-1.214-2.633-1.983-4.067-2.638-1.533-0.697-3.265-1.664-4.812-2.271-1.667-0.65-4.361-0.259-5.186-2.273 5.247-0.633 12.852 3.208 17.83 1.638-0.8-1.83-3.57-1.91-5.56-2.28zm8.17 1.18c0.37 0.745 0.63 1.595 1.473 1.872 0.452-2.163 1.688-3.529 1.908-5.931-2.33 0.14-2.3 2.66-3.38 4.06zm-100.81 8.44c0.93-3.58 1.991-8.934 1.961-12.25-0.079-0.291-0.308-0.435-0.74-0.378-3.12 1.85-3.38 9.29-1.22 12.63zm65.9-11.7c-0.646-0.033-1.155 0.072-1.49 0.358-0.02 0.512 0.169 0.819 0.362 1.119 8.332 5.078 18.574 8.278 26.275 13.976 0.328-1.165 1.418-1.559 1.511-2.962-8.32-4.74-18.43-7.7-26.66-12.5zm37.11 6.63c1.007 1.713 3.059 2.399 5.178 3.019-0.259-3.137 0.619-5.118 0.442-8.173-4.01-3.22-4.52 2.22-5.62 5.15zm23.09-4.64c0.811 4.117 3.124 6.757 3.997 10.813 1.947 0.107 3.427-0.263 4.47-1.076-1.026-3.783-2.649-6.979-4.376-10.073-1.76-0.29-2.56 0.4-4.09 0.34zm-120.07 0.47c7.816 9.419 18.163 16.784 26.927 24.763 1.393 1.266 2.315 3.494 4.811 2.642-0.188-1.742-2.161-2.421-3.318-3.374-9.446-7.796-20.125-15.165-26.548-25.501-0.372-0.004-0.743-0.007-1.115-0.01-0.02 0.74-1.02 0.47-0.76 1.48zm114.11 0.97c2.176 3.652 2.82 10.722 8.844 9.367-1.602-3.341-3.185-6.698-4.372-10.443-1.22 0.63-3.95-0.27-4.47 1.07zm-11.21 6.59c2.318 0.235 2.804-1.396 5.211-1.069 0.822 0.789 1.006 2.205 2.21 2.62-0.752-2.702-1.418-5.486-2.161-8.198-1.731 0.104-2.476-0.762-4.081-0.776-0.65 2.22-0.19 5.56-1.18 7.43zm-45.69-3.73c8.134 4.042 16.634 7.727 24.058 12.471 0.864-0.743 1.996-1.218 2.25-2.583-7.518-5.51-17.962-8.141-25.533-13.597-0.41 1.08-0.85 2.14-0.78 3.71zm52.44-2.9c0.803 3.022 1.04 6.599 2.528 8.944 5.084-0.813 1.686-6.164 0.821-9.286-1.5-0.26-2.13 0.34-3.35 0.35zm-111.16 1.66c5.002 3.578 9.163 8.311 13.278 12.379 1.498 1.48 2.91 3.058 4.422 4.499 1.396 1.327 2.907 3.042 4.423 4.497 1.409 1.35 3.649 3.76 5.926 2.651-8.81-8.785-19.16-16.058-27.293-25.507-0.438 0.054-1.054-0.072-1.117 0.361 0.43 0.07 0.39 0.6 0.36 1.12zm92.14 5.24c1.979-0.235 3.151-1.295 5.585-1.067-0.686-1.785-1.478-3.465-2.937-4.487-0.28 2.3-3.12 3.73-2.65 5.56zm-95.19 4.03c-0.229 1.015-0.963 1.902-1.14 2.965-1.048 6.277-0.889 15.81 3.954 16.017 1.5-2.364-0.17-5.268-0.299-8.552-0.266-6.769 1.613-15.017-1.317-20.084-0.72 2.78-0.43 6.25-1.19 9.65zm95.23-7.75c-1.668-0.704-5.264-1.452-7.058-0.802 2.26 0.38 5.61 4.07 7.06 0.8zm-87.05 6.7c1.816 1.888 3.705 3.729 5.527 5.623 3.673 3.815 7.638 7.582 12.178 10.511-6.854-8.129-14.693-15.287-22.485-22.495 1.33 2.23 2.98 4.5 4.78 6.37zm52.84-5.5c-0.768 0.593-0.878 1.856-0.771 3.339 6.865 3.939 14.858 6.771 21.091 11.331 1.632-0.468 2.355-1.855 3.372-2.944-7.86-3.96-15.66-7.96-23.69-11.73zm-7.82 1.42c-0.411 1.08-1.586 1.386-1.512 2.96 8.502 4.666 17.457 8.885 25.53 13.97 0.956-1.026 2.711-1.24 2.998-2.948-9.15-4.52-18.19-9.14-27.02-13.98zm42.35 2.59c2.178 2.297 6.155-0.182 9.295-0.293-1.46-2.5-7.35-1.15-9.29 0.29zm-55.13 14.4c2.311 1.674 4.885 4.384 8.147 3.785-1.527-2.45-4.634-3.763-7.02-5.263-5.206-3.271-10.451-6.483-15.157-9.792-2.419-1.701-4.403-4.21-7.396-4.523 6.95 5.43 14.51 10.79 21.43 15.79zm-59.04-7.56c0.691-2.8 3.013-5.928 2.673-8.527-0.9 2.59-3.13 5.81-2.67 8.53zm22.72-6.5c2.261 2.663 5.131 5.218 7.741 7.872 2.528 2.57 4.751 6.047 8.12 6.76-5.628-5.155-10.318-11.234-15.844-16.49 0 0.62-0.01 1.24-0.02 1.86zm31.11 14.02c1.907 1.55 4.201 4.93 7.406 3.409-3.912-3.157-8.629-5.522-11.816-9.395-1.22-0.261-2.691-0.823-3.704-1.517-3.837-2.629-6.589-7.098-10.713-7.897 5.68 5.68 12.66 10.4 18.82 15.4zm-11.4-14.59c6.682 4.629 13.996 9.242 20.703 13.558 2.103 1.354 4.681 3.749 7.404 3.409-1.276-2.102-4.021-3.113-6.28-4.515-7.342-4.554-14.845-9.311-21.818-13.568-0.247-0.001-0.494-0.003-0.742-0.005-0.02 0.64 0.29 0.96 0.74 1.13zm-44.37 15.98c3.464-2.734 3.84-8.24 5.314-12.966 0.353-1.132 1.557-2.001 1.142-3.335 0.571-0.085 0.061-0.612-0.365-0.747-1.9 5.81-4.37 11.05-6.08 17.06zm123.54-14.57c-1.23 0.362-3.255-0.035-3.729 1.456 1.188 0.954 2.453-0.355 3.723-0.712 1.794-0.505 4.537-0.489 5.223-2.188-1.79 0.02-3.53 0.94-5.21 1.44zm-9.66-0.83c-0.646 1.466-1.962 2.254-2.265 4.069 2.727 0.022 5.452 0.046 8.178 0.07-1.22-1.93-4.3-3.81-5.92-4.14zm16.72 0.15c-2.641 0.621-5.605 2.597-8.203 2.904 2.69 3.646 6.753-2.378 10.432-2.515 0.04-1.12-1.7-0.51-2.23-0.38zm7.42 2.29c1.34 0.795 2.823-0.988 4.471-1.076 0.071-0.93-0.562-1.169-1.103-1.497-0.38 1.62-2.72 1.24-3.37 2.58zm-134.29 11.13c1.852-4.489 3.133-9.559 4.952-14.085-0.08-0.289-0.308-0.434-0.741-0.377-0.98 4.99-4.25 9.66-4.21 14.46zm67.29-0.55c2.322 1.451 4.773 4.143 8.151 3.416-1.131-2.236-3.925-2.688-5.915-3.768-2.164-1.17-4.045-3.06-6.663-3.401-0.492-1.538-2.477-1.902-3.696-2.635-4.143-2.486-8.63-4.892-12.95-7.17-0.289 0.08-0.733 0.003-0.747 0.364 7.4 4.85 14.65 8.73 21.82 13.2zm-72.45-4.33c2.732-1.72 2.508-6.446 4.167-9.258-0.372-0.003-0.744-0.005-1.115-0.01-0.37 3.75-2.25 5.96-3.05 9.27zm65.08-3.53c4.88 2.817 9.382 5.663 14.056 8.297 2.302 1.297 4.878 3.752 7.783 2.668-4.629-2.868-9.481-4.864-14.433-7.557-5.195-2.823-10.578-7.178-16.655-8.69 2.12 2.79 5.86 3.31 9.25 5.28zm65.44-1.31c2.664-0.038 3.843-1.589 5.229-2.93-1.93 0.79-4.36 1.07-5.23 2.93zm-131.25 3.35c0.852-0.633 1.256-1.721 1.144-3.335 0.395-0.768 2.451-3.271 0.774-3.709-0.13 2.5-3.19 5.53-1.91 7.04zm7.76 5.27c2.89-2.685 2.85-8.348 4.933-11.852-0.476-0.027-0.512-0.482-1.113-0.383-0.82 4.54-3.23 7.46-3.82 12.23zm127.57-8.21c0.97-1.14 2.815-1.389 3.371-2.946-1.57 0.28-3.94 1.73-3.37 2.95zm21.58-2.42c-4.319-0.683-7.202 3.104-10.078 5.119 3.771 0.916 6.712-2.14 10.429-2.514 0.31-1.3-0.54-1.44-0.35-2.61zm-92.19 0.33c7.564 3.728 14.91 8 21.833 11.707 2.3 1.233 4.782 3.781 7.783 2.669-4.339-2.604-8.636-5.006-13.318-7.546-5.277-2.866-10.601-6.831-17.032-7.95-0.02 0.64 0.29 0.96 0.74 1.12zm76.18 3.25c2.43-0.652 4.652-1.517 5.606-3.668-2.15 0.94-5.66 0.49-5.61 3.67zm-130.53 5.96c2.579-2.252 3.418-6.27 4.177-10.374-0.372-0.003-0.743-0.005-1.115-0.009-0.94 3.45-2.63 7.61-3.07 10.38zm76.23-3.08c-4.222-2.242-8.665-4.346-12.582-6.797-0.646-0.033-1.154 0.074-1.489 0.36-0.003 0.371-0.007 0.742-0.009 1.113 7.511 3.563 15.602 8.217 22.571 12.087 1.071 0.596 1.293 2.578 2.969 0.769-2.82-3.5-7.34-5.34-11.46-7.53zm58.76-3.22c1.863 0.588 3.75-1.213 4.854-2.56-1.85-0.58-4.07 0.88-4.85 2.56zm-148.67-2.37c0.113-0.972-0.123-1.602-1.103-1.496-0.11 0.98 0.12 1.61 1.1 1.5zm0.73 1.87c0.042-1.104 1.92-2.269 0.772-3.34-0.48 0.65-1.6 2.59-0.77 3.34zm1.1 1.87c0.266-1.46 2.872-4.187 1.16-5.195-0.24 1.63-2.76 4.1-1.16 5.2zm138.67-1.81c1.139-0.262 1.088 0.65 2.228 0.389 0.002-0.984 0.224-2.187-0.725-2.235-0.39 0.75-1.66 0.58-1.51 1.85zm-123.07 3.8c0.185-1.893 3.064-4.772 1.169-6.31 0.04 2.24-2.54 5.15-1.17 6.31zm17.47-0.23c1.648 1.625 3.337 4.129 5.54 4.135-3.72-2.854-5.643-7.476-9.954-9.749 0.69 2.25 2.71 3.94 4.41 5.61zm-12.97-4.94c0.45 0.04 0.23-0.54 0 0zm-0.06 7.44c0.892-1.849 2.608-4.837 1.55-7.423-0.43 2.2-2.92 5.82-1.55 7.42zm109.7-5.4c0.484 0.385 1.366 0.377 1.853 0.761 0.315-0.429 0.499-0.992 0.387-1.854-1.31-0.21-1.92 0.29-2.24 1.09zm-5.95 0.32c1.764 6.206 10.482 7.134 13.28 12.007 2.756 4.799-0.055 11.739-1.267 17.833-0.553 2.777 0.001 5.754-2.29 7.042-4.009 0.05-8.725-0.991-10.794 1.768 1.371 1.315 3.961-0.814 5.2 0.417 0.089 2.339-2.646 1.808-3.005 3.691 5.7-2.485 14.201-3.58 21.955-2.79-1.249-3.193-7.778-1.198-8.884-4.535 1.743-7.601 5.171-13.483 6.502-21.506-4.461-1.512-2.204-9.627-4.724-13.048-1.508-0.604-3.351-0.883-5.569-0.791-0.902 0.205 0.153 2.406-1.133 2.221-3.33-0.35-5.75-3.4-9.29-2.31zm18.56 3.13c2.125 1.158 3.665-1.178 3.744-3.313-1.96 0.37-3.81 0.86-3.74 3.31zm-30.09-2.48c1.101 2.48-0.849 7.96 1.408 9.306 2.319-1.621-0.396-6.001 0.453-9.662-0.078-0.291-0.308-0.436-0.741-0.379-0.1 0.52-0.82 0.41-1.12 0.73zm3.66 7.47c1.496 0.024 2.13-0.833 2.616-1.836-1.782-1.319-1.191-4.972-2.921-6.346-0.37 1.81 0.11 5.72 0.3 8.19zm2.99-2.95c1.452-0.275 1.916 1.39 2.971 0.396-1.421-1.92-2.2-4.471-4.414-5.612-0.51 1.37 1.36 3.22 1.44 5.21zm4.47-0.71c-0.425-2.286-2.024-3.415-3.68-4.49 0.06 1.27 1.66 3.95 3.68 4.49zm-0.72-3.35c0.334-0.763-0.949-1.677-1.107-0.752 0.54 0.09 0.63 0.61 1.11 0.75zm35.33-0.82c-1.111-0.117-7.551 2.282-7.464 3.282 2.743 1.58 6.719-0.842 9.677-1.405-0.05-1.24-1.08-1.75-2.22-1.87zm-139.81 4.03c0.689-1.444 1.779-4.218 1.155-4.823-0.35 1.4-1.57 3.88-1.16 4.82zm14.87 0.49c-1.118-2.095-2.639-3.795-4.416-5.24 0.28 2.92 2.09 4.34 4.42 5.24zm111.88 0.58c1.334 0.653 1.259 2.692 2.948 2.998-0.926-1.669 0.485-5.639-1.434-6.331 0.14 1.76-1.42 1.8-1.52 3.33zm-33.49 4.17c0.52-1.993-0.188-5.75 0.434-7.43-0.37-0.005-0.74-0.007-1.112-0.01 0.49 1.79-1.4 6.42 0.68 7.44zm-110.41 1.67c0.975-0.646 1.689-2.348 2.261-3.698 0.776-1.828 1.963-4.646 1.166-5.938-0.69 3.69-2.86 5.85-3.43 9.64zm152.45-5.77c2.679 1.907 5.854-0.645 8.927-0.669-0.92-3.96-6.55 0.23-8.93 0.67zm-152.39-2.03c-0.037-0.945-0.529-1.446-1.474-1.499-0.07 1.05 1.04 0.94 1.47 1.5zm153.39 15.42c-1.395-5.88-0.956-13.56-6.562-15.297 0.19 7.19 2.84 10.99 6.56 15.3zm-46.38-10.06c2.541 0.194 1.284-4.328 0.785-4.825-1.27 1.2-0.06 2.86-0.78 4.83zm15.26-2.1c1.33 0.141 3.983 1.735 4.456 0.408-1.212-0.65-1.738-1.975-2.95-2.626-0.24 1.01-1.56 0.92-1.51 2.22zm34.94 0.67c2.028-0.062 4.467 0.295 5.952-0.321-0.56-2.97-4.8-0.65-5.95 0.32zm-14.13 0.62c-0.145-0.897 0.686-0.803 0.388-1.856-0.476-0.022-0.511-0.48-1.112-0.381-0.5 0.49-0.11 1.97 0.72 2.24zm-39.03-0.33c0.429 0.315 0.992 0.499 1.855 0.388-0.023-0.647 0.092-1.155 0.384-1.484-0.84-0.82-2.32-0.16-2.24 1.09zm-105.94-0.15c1.117 0.582 0.993-1.914 0.387-1.854-0.49 0.87 0.04 0.69-0.39 1.85zm121.18-0.09c-0.122 0.877-1.297 0.682-1.131 1.85 5.04 1.188 10.464 1.999 15.587 3.106-2.58-3.86-9.64-3.31-14.46-4.96zm35.94 14.43c1.211 0.112 1.651 1.992 2.576 2.995 0.789 0.857 2.216 2.645 2.588 1.51-1.552-5.232-2.508-11.05-3.201-17.127-1.627-0.242-2.43-1.295-4.075-1.521-0.4 4.34 1.88 9.17 2.1 14.14zm-12.18-10.89c1.591 0.12 1.654-1.317 1.881-2.586-0.476-0.024-0.511-0.479-1.112-0.382 0.15 1.41-1.82 1.8-0.77 2.97zm15.26-1.73c2.304 8.794 1.889 20.26 7.589 25.714-0.132-5.563-2.393-11.715-3.203-16.757-0.545-3.381 0.044-6.663-1.41-9.303-1.08 0.04-2.44-0.21-2.98 0.35zm9.79 28.71c1.541 0.82 1.887 2.814 3.313 3.744-1.145-6.032-1.723-13.479-2.429-20.463-0.477-4.732-0.715-10.384-4.729-12.309-0.248-0.002-0.496-0.003-0.744-0.005 0.16 9.56 3.49 19.18 4.59 29.03zm-23.23-22.5c1.763-0.79 2.81-4.835 0.044-5.204-1.28 1.9-0.04 2.78-0.04 5.2zm-28.58-5.07c-1.744 3.101-6.771 2.859-6.755 7.751 3.043-2.174 6.607-4.156 8.239-7.365-0.49-0.12-0.7-0.54-1.48-0.38zm-7.09 4.03c1.428-0.549 2.439-1.52 3.366-2.573-1.068-0.425-2.299-0.688-3.709-0.776 0.06 1.16-0.28 2.72 0.34 3.35zm11.16-1.03c2.197 0.887 5.098 0.747 7.797 1.182 2.46 0.396 5.224 2.104 7.059 0.431-4.016-2.562-10.644-2.559-15.95-3.852-0.04 1.14 0.76 1.46 1.09 2.24zm-26.76-0.96c-1.733-0.016-3.468-0.028-5.203-0.044-0.25 2.19 4.6 1.38 5.2 0.04zm17.38 10.55c2.841-2.484 6.34-4.299 8.611-7.361-0.576-0.537-0.275-1.939-1.471-1.871-1.62 2.18-11.19 5.73-7.14 9.23zm36.13-8.99c-0.901 1.081-1.264 2.714-1.523 4.446-0.656 0.398-2.139 3.31-0.404 3.716 0.928-2.67 3.571-5.211 3.042-8.153-0.37-0.01-0.74-0.02-1.12-0.02zm26.51 30.71c1.741 1.729 2.571 4.353 4.785 5.617-1.458-10.238-3.36-20.04-3.825-31.258-1.722-1.622-3.324-3.366-5.164-4.875 1.48 10.07 2.56 20.56 4.19 30.51zm-84.13-29.34c1.878 0.795 4.574 0.163 5.584-1.068-2.01 0.21-4.43 0-5.58 1.07zm-63.96 2.81c0.505 5.688 2.063 12.166 1.71 17.485 1.697-0.058 4.771 0.364 5.183 2.646 7.313-3.933 15.183-7.303 22.399-11.334-8.847-4.203-17.451-8.644-26.284-12.861 0.52 2.9-1.7 3.02-3.01 4.06zm97.02-0.67c3.991 0.649 8.53 2.637 12.623 1.965 0.007-0.743 0.013-1.487 0.019-2.229-4.793-0.573-9.413-1.312-13.734-2.348-0.18 1.4 0.72 1.75 1.09 2.61zm-31.96-0.27c1.685 0.075 5.078-0.067 4.104-1.451-0.76 1.11-3.63 0.05-4.1 1.45zm56.43 8.28c1.671-2.173 2.62-5.079 3.413-8.148-0.757-0.115-0.72-1.013-1.477-1.126-0.33 2.96-4.83 6.67-1.93 9.28zm-54.96-6.4c1.548 0.073 3.102 0.154 3.724-0.712 0.024-0.641-0.277-0.957-0.735-1.122-0.62 0.99-2.95 0.25-2.99 1.83zm27.89-1.63c-2.688 2.764-5.936 4.96-8.983 7.359 0.109 1.367-0.344 3.288 0.337 4.092 4.074-2.233 7.649-4.968 10.849-8.087-0.11-1.74-0.99-2.71-2.21-3.36zm65.75 5.39c-1.901-2.436-6.145-4.524-9.631-4.173 1.82 2.75 5.83 3.36 9.63 4.17zm-36.85 5.26c0.92-2.939 2.8-4.9 3.415-8.15-0.495-0.375-0.722-1.011-1.479-1.128 0.2 3.56-3.81 6.48-1.94 9.28zm-22.99-5.77c2.701-0.478 8.169 3.318 8.555-0.673-3.242-0.99-7.034-1.439-10.388-2.317 0.21 1.4 1.29 1.94 1.84 2.99zm-32.7-1.76c0.641 0.542 2.628 0.179 2.981-0.719-1.12 0.11-2.89-0.44-2.98 0.72zm87.08 32.33c0.978 0.739 2.567 4.464 3.32 3.002-1.49-8.71-1.411-20.728-2.359-28.643-0.332-2.776-4.059-4.516-5.151-6.361 1.16 10.9 3.19 20.95 4.19 32zm-30.64-24.42c0.272 1.327 0.938 2.27 1.833 2.987 0.862-2.997 2.051-5.664 3.414-8.148-0.802-0.564-0.851-1.869-2.215-1.878-0.58 2.78-1.62 5.11-3.03 7.04zm-163.54-2.5c0.84 1.737 1.512 4.319 3.676 4.864-0.137-3.764 0.1-7.146 1.197-9.655-2.46-0.287-4.176-0.64-7.428-0.805 0.616 1.88 1.639 3.71 2.555 5.6zm107.83-3.54c0.729 0.694 2.733 0.575 2.24-1.097-0.95 0.16-1.72 0.5-2.24 1.1zm28.62-0.14c-2.937 3.511-7.156 5.718-10.85 8.459 0.43 0.928-0.197 2.896 1.088 2.982 4.062-2.743 8.388-5.216 12.336-8.073-0.63-1.34-0.79-3.16-2.58-3.37zm63.52 5.75c4.274 1.935 11.055 2.098 15.219 2.73-6.144-2.808-11.996-7.864-20.385-7.236 1.86 1.17 2.78 3.43 5.16 4.51zm-43.1-2.97c0.962 0.482 1.114 0.826 2.227 0.391-0.22-1.013-0.722-1.746-1.469-2.242-0.16 0.71-1.06 0.66-0.76 1.85zm-15.99 0.61c1.243 0.757 6.23 2.428 7.061 0.06-1.612-1.484-5.08-1.147-7.418-1.92-0.31 1.04 0.52 0.96 0.36 1.86zm-32.33-1.02c0.921 0.063 1.803 0.087 1.865-0.728-0.7 0.16-2.23-0.52-1.86 0.73zm57.92 8.67c1.799-1.638 5.803-7 2.679-8.899-0.45 3.14-3.8 6.59-2.68 8.9zm-57.56-6.81c0.986 0.003 2.188 0.226 2.237-0.724-0.78 0.22-2.58-0.62-2.24 0.72zm46.45 1.51c1.764 0.601 3.569 1.158 5.938 1.164-0.213-2.493-2.761-2.691-5.554-2.648 0.02 0.65-0.1 1.16-0.39 1.49zm12.58 7.54c0.287 0.086 0.733 0.018 0.74 0.379 2.282-1.679 2.621-5.333 4.155-7.771-0.875-0.123-0.682-1.296-1.85-1.13-0.4 3.46-2.71 4.99-3.04 8.52zm-28.18-8.42c-1.696 1.084-3.873 2.442-7.102 4.4-3.762 2.287-8.154 4.144-4.894 7.394 3.953-2.554 10.345-5.677 13.832-9.176-0.48-1-0.67-2.29-1.84-2.61zm59.57 31.73c1.335 0.849 2.821 4.822 4.061 3.381-0.242-6.23-2.337-15.102-2.783-22.697-0.138-2.368 0.295-4.721 0.058-6.692-0.323-2.694-2.981-3.884-4.416-5.241 1.04 10.41 2.76 20.15 3.08 31.25zm-87.84-30.1c0.228-1.33-1.092-1.141-2.222-1.135-0.23 1.32 1.09 1.13 2.22 1.13zm31.23-0.11c1.232 0.521 2.935 2.087 4.449 1.153 0.005-0.496 0.009-0.992 0.014-1.488-1.75 0.44-3.73-1.38-4.46 0.34zm11.88 1.21c-0.121 0.501-0.535 0.704-0.386 1.483 2.776 0.221 7.737 1.807 9.663 0.454-1.75-1.74-6.84-2.05-9.27-1.93zm17.03 9.07c0.34-3.524 2.618-5.083 3.045-8.521-0.738-0.013-0.464-1.02-1.48-0.758-0.24 2.92-4.96 7.43-1.56 9.28zm34.23-4.55c1.235 1.169 2.857 3.465 4.426 4.127 1.479 0.626 4.904 0.795 7.795 1.181 5.949 0.794 14.768 1.674 18.938 2.391 0.396 0.02 0.946-0.167 0.373-0.368-4.777-2.199-9.789-3.411-14.075-5.696-1.367-0.728-2.623-2.043-4.067-2.636-5.14-2.111-11.122-1.373-17.07-3.489 0.29 1.85 2.1 3.02 3.67 4.5zm-96.24-4.53c0.064 1.655 2.305 1.094 2.602 0.022-0.95-0.34-1.37-0.19-2.6-0.02zm-62.52 9.14c1.146 3.864-2.148 5.248-3.78 7.403-0.508 0.731-2.595-0.14-2.612 1.094 1.094 0.526 0.98 2.402 1.087 3.353 0.774 6.853-0.113 15.76 0.933 21.568 7.938-14.422 16.423-28.282 24.521-42.542-7.45 2.31-11.84 7.71-20.15 9.13zm95.22-7.74c-1.792 1.924-4.715 2.701-6.36 4.777 2.525-0.68 5.661-0.741 7.82-1.791-0.02-1.46-0.24-2.72-1.46-2.99zm3.7 1.89c0.87-0.551 0.576-0.904 0.388-1.856-0.494-0.004-0.99-0.009-1.486-0.013 0.34 0.65-0.02 1.99 1.1 1.87zm-33.06-1.77c-1.486-0.012-2.973-0.025-4.46-0.038 0.12 1.99 4.21 1.9 4.46 0.04zm59.76 9.8c2.004-1.727 2.736-5.206 3.783-7.773-0.7-0.048-0.248-1.231-1.104-1.126-0.91 2.75-3.75 6.5-2.68 8.9zm32.75-4.56c-1.552-0.526-2.775-4.602-4.063-3.008 1.711 10.166 3.501 21.195 3.446 31.997 0.983 0.877 1.38 2.33 2.95 2.626-0.1-11.99-2.34-19.6-2.34-31.62zm-52.02-1.92c4.128 0.979 9.298 0.931 13.366 1.971-0.133-1.221-1.073-1.648-1.466-2.614-4.15 0.91-10.5-3.43-11.9 0.64zm-43.13 0.37c0.509-1.356 2.965-0.733 3.363-2.199-1.838 0.617-4.675 1.167-6.318-0.055 0.32 1.42 1.45 2.02 2.96 2.25zm-5.58 0.7c-0.377-1.227-1.134-2.078-2.207-2.621-0.55 0.9 0.85 2.43 2.21 2.62zm2.24-0.72c0.086-1.095-1.647-2.282-2.22-1.507 0.75 0.49 0.66 1.81 2.22 1.51zm-4.85 1.81c0.504-1.054-0.453-3.352-2.203-3.364 0.15 1.69 1.59 2.12 2.2 3.36zm-5.56-1.53c0.744 0.007 1.487 0.014 2.231 0.021 0.002-0.372 0.005-0.744 0.009-1.115-1.14-0.03-1.9 0.32-2.24 1.09zm17.47-0.23c0.846 0.111 1.398-0.078 1.494-0.73-0.66 0.08-1.86-0.39-1.49 0.73zm62.81 0.91c-0.571 2.101-3.849 5.686-1.922 7.417 1.36-2.364 2.866-4.58 3.779-7.402-0.874-0.123-0.68-1.296-1.849-1.13 0 0.36 0 0.74-0.01 1.11zm-7.09 4.03c-0.932-3.266-7.624-2.822-10.757-2.692 2.13 2.33 7.03 1.92 10.76 2.69zm-71.36-1.72c0.908-0.203 1.915-0.302 1.871-1.472-0.372-0.002-0.744-0.006-1.114-0.009-0.2 0.55-0.56 0.93-0.76 1.48zm78.74 8.1c1.084-2.772 2.892-4.808 3.415-8.147-0.53-0.094-0.621-0.618-1.109-0.753-0.31 2.94-5.92 6.74-2.3 8.9zm29.79-6.81c-0.004 2.453 0.726 6.175 1.049 7.816 0.751 3.825 1.19 9.117 1.373 13.394 0.169 3.915-1.175 10.339 3.629 10.438-0.608-5.671-1.117-13.188-1.691-19.716-0.607-6.918 0.377-11.407-4.351-13.045 0 0.36-0.01 0.74-0.01 1.11zm-78.07 1.57c1.19 0.517 1.304 1.448 2.588 1.51 1.353 0.065 3.394-1.878 3.741-2.943-2.99-0.68-5.16-1.8-6.33 1.43zm-85.52 2.99c-0.889-1.705-2.112-3.084-2.183-5.595-0.648 0.024-1.155-0.092-1.484-0.384 1.72 1.48-0.08 6.45 3.66 5.97zm136.37 5.61c0.695-3.29 2.782-5.166 3.049-8.895-0.529-0.094-0.622-0.617-1.109-0.753-0.67 2.89-5.81 8.01-1.94 9.65zm39.05-1.89c2.435 1.25 6.18 0.619 10.028 0.826 3.262 0.177 7.474 0.935 11.144 1.21 4.605 0.349 10.083 1.106 10.432-2.886-9.197-5.701-26.223-3.704-38.231-6.643 1.65 1.57 4.39 6.33 6.63 7.49zm-56.08-6.05c-1.876-0.497-5.959-0.767-7.806-0.065 5.986 0.996 12.486 1.484 18.19 2.756-0.14-3.29-8.35-4.84-10.38-2.7zm-30.5 1.97c0.52 1.456 1.501 2.456 2.948 3 0.104-0.523 0.819-0.418 1.123-0.735 0.306-1.652-1.988-0.749-1.84-2.246-0.233-1.516 3.642-2.334 1.884-2.958-1 1.36-2.94 1.75-4.11 2.94zm10.41 0.46c-2.701 1.45-5.301 1.494-5.605 3.299 0.023-0.227 0.06-0.44 0.376-0.367 2.336-0.405 4.778-1.074 7.077-1.8 2.083-0.661 4.895-1.04 5.973-2.922-3.65-1.6-5.17 0.36-7.83 1.79zm10.03 0.08c6.691 2.148 15.851 3.831 23.388 3.916-3.021-3.975-10.38-2.808-17.065-4.233-1.733-0.368-4.896-1.312-6.681-1.172-0.1 0.69 0.4 0.82 0.35 1.48zm29.66 9.55c0.56-3.68 3.161-5.284 3.056-9.638-0.875-0.123-0.682-1.298-1.85-1.134-0.36 3.51-4.62 8.03-1.21 10.77zm-44.16-8.92c0.161-0.836 2.037 0.072 1.866-1.099-0.41-0.78-2.61 0.81-1.87 1.1zm76.37 24.06c0.206 1.92-0.838 4.26 1.82 4.477 0.378-9.116-0.766-16.375-0.892-26.4-0.924-1.057-1.739-2.224-2.948-2.998 0.83 7.14 1.27 17.91 2.02 24.92zm-40.36-18.93c-5.912-1.278-13.333-1.59-18.56-3.13-0.075-0.45-0.41-0.233-0.743-0.007 1.215 3.729 6.725 3.136 11.49 3.813 4.495 0.641 8.856 1.769 12.247 2.335 0.33-2.63-2.56-2.6-4.44-3.01zm8.88 5.28c1.292 0.943 1.611 2.84 2.943 3.744 0.358-4.008 1.814-6.901 2.32-10.761-0.875-0.122-0.682-1.297-1.85-1.131-0.72 3.14-2.34 5.37-3.41 8.15zm33.87-5.66c0.323 4.607 0.707 10.165 0.998 13.762 0.302 3.757-0.806 8.86 1.027 10.419 2.26-1.063 0.861-4.086 0.794-5.94-0.215-5.791-0.376-12.313-0.594-17.85-0.775-0.465-1.439-1.041-2.216-1.506 0 0.37 0 0.75-0.01 1.12zm15.18 7.19c7.078 0.997 14.716 1.532 15.659-5.444-9.452 0.447-18.478-1.489-26.381-1.338 3.45 2.38 7.47 4.2 10.72 6.78zm-42.07 7.82c0.472-3.767 1.57-6.9 2.688-10.013-0.857-1.614-2.043-2.905-3.312-4.117-1.28 4.09-3.7 11.73 0.62 14.13zm-31.86-11.79c7.339 1.508 14.978 2.721 23.018 3.54-0.233-2.95-3.627-1.965-5.558-2.278-5.756-0.929-13.653-2.171-18.186-3.498-0.41 1.39 0.91 1.07 0.73 2.24zm62.44-0.22c-0.248 2.705 0.532 5.734 0.67 8.929 0.16 3.753-1.062 8.552 1.026 10.415 1.636-2.268 0.605-5.536 0.444-8.546-0.208-3.867-0.034-7.879-0.65-11.156-1.016 0.263-0.74-0.747-1.48-0.756-0.15 0.54-0.45 0.63-0.01 1.12zm3.57 17.5c3.52-0.098 1.554-3.511 1.532-5.191-0.038-2.797 0.843-5.957 0.451-9.289-0.719-0.77-1.146-1.824-2.588-1.881 0.3 5.34 1.17 11.33 0.61 16.36zm-62.34-12.79c6.917 1.432 14.747 1.962 21.905 3.159-0.15-3.993-7.164-2.917-10.013-3.06-3.646-1.695-9.38-1.343-13.358-2.714-0.29 1.63 1.19 1.53 1.46 2.61zm65.71 10.59c1.625-0.756 1.291-4.305 1.171-6.682-0.098-1.962-0.005-4.834-1.442-5.216 0.09 3.89-0.41 9.75 0.27 11.9zm-34.22 1.94c0.854-3.878 2.27-7.189 3.07-11.126-0.875-0.984-1.458-2.253-2.953-2.627-0.3 4.32-4 10.87-0.12 13.76zm36.51-9.72c0.001-0.546 0.167-3.041-0.356-1.861 0.01 0.54-0.15 3.03 0.36 1.86zm5.96-1.07c0.416 0.082 0.575 0.42 0.737 0.751 1.133 0.027 1.895-0.321 2.238-1.096-1.15 0.05-2.3-0.9-2.98 0.35zm-71.39 2c6.119 0.453 12.977 2.146 18.193 2.754 1.223 0.142 3.162 0.733 4.091-0.338-1.559-1.902-4.764-1.984-7.415-2.292-5.468-0.639-11.516-0.889-15.964-2.364-0.2 1.32 1.32 0.92 1.1 2.24zm30.39 10.66c0.991 0.009 1.983 0.018 2.974 0.024 0.836-2.896 1.734-5.733 2.305-8.9-0.871-0.985-1.456-2.253-2.951-2.628-0.01 4.61-1.75 7.47-2.32 11.51zm-13.69-6.8c-5.415-0.747-10.329-2.03-14.854-1.984 4.47 1.1 10.28 5.42 14.85 1.98zm18.52 7.22c2.562-0.517 2.47-3.735 3.395-5.92-0.275-0.957-0.89-1.583-1.843-1.873-0.75 2.17-1.43 6.21-1.56 7.79zm3.36-1.46c1.603 0.256 2.089-0.625 2.982-1.091-0.224-1.134-0.81-1.906-2.215-1.876-0.2 1.04-0.55 1.93-0.76 2.97z"/>
	<path d="m19.327 78.853c-2.224 2.28-5.922 2.051-8.946 2.898-3.051 0.856-5.952 2.674-9.315 2.524-1.584-7.147-0.347-16.629-0.539-24.167 0.096-0.403 0.742-0.245 0.75-0.737 0.433-0.056 0.661 0.088 0.741 0.378 5.953 6.189 11.758 12.52 17.309 19.104z"/>
	<path d="m336.31 133.94c-4.202 1.163-6.738-1.982-8.886-4.164-4.712-4.794-8.513-8.182-15.514-11.655-3.253-1.613-6.582-3.616-10.755-3.064-5.922 0.783-9.231 8.307-14.216 10.659-1.733 0.82-6.283 1.818-9.676 1.406-7.673-0.935-18.189-10.008-15.068-20.572 0.933-3.148 4.52-7.1 6.767-8.864 10.963-8.609 28.76-5.47 41.259 0.349 8.588 3.997 13.944 9.059 19.566 16.149 4.13 5.209 6.604 7.807 6.933 15.299 0.06 1.34 1.04 3.05-0.41 4.45zm-46.91-35.333c0.102-0.578 0.817-0.252 1.114 0.009 3.001 3.754 6.534 8.716 5.822 14.917-0.556 1.076-2.765 2.424-2.259 3.327 1.15-0.831 2.046-1.916 3.368-2.571 0.61-10.8-4.895-15.587-10.236-20.533-3.564 0.445-9.419-0.059-11.916 2.501 8.729 4.303 14.195 13.001 13.165 25.761 1.665-0.938 4.372-2.795 4.126-4.427-0.184 0.717-2.482 1.185-2.977 0.346 0.254-8.267-2.693-13.684-6.543-17.525-1.365-1.362-3.687-1.893-4.054-4.124 3.14-2.922 10.37-0.844 10.4 2.311zm4.47-1.078c1.844-0.625 4.313-0.611 5.591-1.812-2.4-0.594-6.122-1.838-8.539-1.187 1.23 0.76 1.64 2.325 2.95 2.999zm3.67 6.721c2.28-0.553 4.266-1.406 5.968-2.551-2.228-1.251-5.064-1.902-8.159-2.299 0.14 2.189 1.99 2.709 2.19 4.849zm17.45 2.01c-0.187 1.904 1.775 1.697 1.455 3.73-0.481 1.257-2.073 1.39-2.253 2.955 0.618 1.4 0.937 2.752 0.334 4.463 1.075-0.156 1.699-0.769 1.873-1.844-0.292-0.695-0.609-1.365-0.725-2.235 1.883-1.789 2.208-4.451 0.428-6.687 0.005-0.776 2.293-2.273 0.395-2.599-0.26 0.98-1.34 1.14-1.49 2.23zm4.05 4.12c-0.889 1.735-2.029 2.977-1.163 5.567-0.292 1.076-1.769 0.949-1.509 2.588 1.294 0.853 2.666-0.882 2.992-2.205-0.528-0.831-0.919-1.8-0.715-3.352 0.407-0.959 1.355-1.369 1.509-2.589-0.757-1.467 0.01-4.431-1.818-4.847-1.15 1.69 0.79 3.02 0.71 4.83zm-20.06-1.66c1.562-0.661 3.08-1.368 4.111-2.568-0.997-0.741-3.246-0.249-4.831-0.413 0.09 1.15 0.36 2.11 0.72 2.98zm-34.96 3.05c0.498 2.361 2.817 2.215 5.175 3.39-1.199 1.619-1.454 3.999-0.047 5.576 6.211 1.63 8.552-3.751 8.263-9.967-1.67-5.03-14.97-6.42-13.39 1zm35.3 1.42c2.206-0.129 3.646-1.042 4.851-2.188-1.418-0.326-2.977-0.511-4.828-0.413-0.01 0.86-0.02 1.73-0.02 2.6z"/>
</g>
<metadata><rdf:RDF><cc:Work><dc:format>image/svg+xml</dc:format><dc:type rdf:resource="http://purl.org/dc/dcmitype/StillImage"/><cc:license rdf:resource="http://creativecommons.org/licenses/publicdomain/"/><dc:publisher><cc:Agent rdf:about="http://openclipart.org/"><dc:title>Openclipart</dc:title></cc:Agent></dc:publisher><dc:title>dove with love letter</dc:title><dc:date>2008-02-13T19:04:20</dc:date><dc:description>The Laughing Prince, A Book of Jugoslav Fairy Tales and Folk Tales by Parker Fillmore, 1921</dc:description><dc:source>http://openclipart.org/detail/13868/dove-with-love-letter-by-johnny_automatic</dc:source><dc:creator><cc:Agent><dc:title>johnny_automatic</dc:title></cc:Agent></dc:creator><dc:subject><rdf:Bag><rdf:li>animal</rdf:li><rdf:li>bird</rdf:li><rdf:li>clip art</rdf:li><rdf:li>clipart</rdf:li><rdf:li>dove</rdf:li><rdf:li>externalsource</rdf:li><rdf:li>image</rdf:li><rdf:li>letter</rdf:li><rdf:li>love</rdf:li><rdf:li>media</rdf:li><rdf:li>png</rdf:li><rdf:li>public domain</rdf:li><rdf:li>svg</rdf:li><rdf:li>woodcut</rdf:li></rdf:Bag></dc:subject></cc:Work><cc:License rdf:about="http://creativecommons.org/licenses/publicdomain/"><cc:permits rdf:resource="http://creativecommons.org/ns#Reproduction"/><cc:permits rdf:resource="http://creativecommons.org/ns#Distribution"/><cc:permits rdf:resource="http://creativecommons.org/ns#DerivativeWorks"/></cc:License></rdf:RDF></metadata></svg>
